<svg width="22" height="22" viewBox="0 0 22 22" fill="none" xmlns="http://www.w3.org/2000/svg"><path fill-rule="evenodd" clip-rule="evenodd" d="M11.15 13.843c3.341 0 6.05-2.635 6.05-5.886 0-3.251-2.709-5.887-6.05-5.887-3.341 0-6.05 2.636-6.05 5.887 0 3.25 2.709 5.886 6.05 5.886zm4.4-.402c1.674-1.274 2.75-3.257 2.75-5.484C18.3 4.115 15.099 1 11.15 1 7.201 1 4 4.115 4 7.957c0 2.227 1.076 4.21 2.75 5.484v6.824c0 .196.11.376.286.47a.563.563 0 00.561-.02l3.553-2.222 3.553 2.222a.563.563 0 00.56.02.533.533 0 00.287-.47V13.44zm-1.1.689a7.28 7.28 0 01-3.3.784 7.278 7.278 0 01-3.3-.784v5.155l3.003-1.878a.563.563 0 01.594 0l3.003 1.878V14.13zm-3.3-3.498c1.519 0 2.75-1.198 2.75-2.675 0-1.478-1.231-2.676-2.75-2.676S8.4 6.48 8.4 7.957s1.231 2.675 2.75 2.675zm0 1.07c2.126 0 3.85-1.676 3.85-3.745 0-2.07-1.724-3.746-3.85-3.746-2.126 0-3.85 1.677-3.85 3.746s1.724 3.746 3.85 3.746z" fill="#1A1A1C"/></svg>