<svg width="20" height="20" viewBox="0 0 20 20" fill="none" xmlns="http://www.w3.org/2000/svg"><path fill-rule="evenodd" clip-rule="evenodd" d="M16.839 11.5a7.026 7.026 0 000-3h-2.943a10.764 10.764 0 010 3h2.943zm-3.954 0h-5.77A9.727 9.727 0 017 10c0-.53.041-1.03.115-1.5h5.77c.074.47.115.97.115 1.5s-.041 1.03-.115 1.5zm.82-4h2.835a7.012 7.012 0 00-5.13-4.358A10.116 10.116 0 0113.705 7.5zM10 3.145a8.88 8.88 0 011.34 1.516A9.116 9.116 0 0112.672 7.5H7.328A9.116 9.116 0 0110 3.145zm2.672 9.355A9.117 9.117 0 0110 16.855a8.888 8.888 0 01-1.34-1.516A9.117 9.117 0 017.328 12.5h5.344zm-1.262 4.358a10.142 10.142 0 002.295-4.358h2.835a7.013 7.013 0 01-5.13 4.358zM6 10c0-.526.037-1.026.104-1.5H3.16a7.026 7.026 0 000 3h2.943A10.766 10.766 0 016 10zm1.84-5.912c.257-.366.513-.681.75-.946A7.012 7.012 0 003.46 7.5h2.835A10.117 10.117 0 017.84 4.088zM3.46 12.5h2.835a10.117 10.117 0 002.295 4.358A7.012 7.012 0 013.46 12.5zM10 18a8 8 0 100-16 8 8 0 000 16z" fill="#1A1A1C"/></svg>