<svg width="22" height="22" viewBox="0 0 22 22" fill="none" xmlns="http://www.w3.org/2000/svg"><path d="M18.198 8.813h-6.905V7.6c-.033-1.27-1.898-2.1-3.997-2.1-2.154 0-3.996.865-3.996 2.132v5.636c0 .63.461 1.197 1.299 1.595.729.346 1.687.537 2.698.537h10.9c.278 0 .503-.211.503-.472V9.285c0-.26-.225-.472-.502-.472zM4.305 7.623c.012-.495 1.148-1.18 2.992-1.18 1.854 0 2.992.693 2.992 1.189 0 .468-.698 1.181-3.04 1.181-1.92 0-2.945-.687-2.945-1.181l.001-.008zm13.39 6.834H16.14V13.31c0-.26-.225-.471-.502-.471s-.502.21-.502.471v1.146h-1.933V13.31c0-.26-.225-.471-.502-.471-.278 0-.503.21-.503.471v1.146h-1.933V13.31c0-.26-.225-.471-.502-.471s-.502.21-.502.471v1.146H7.297c-1.854 0-2.993-.693-2.993-1.189V9.071c.842.497 1.987.693 2.993.693l10.399-.008v4.7z" fill="#1A1A1C"/></svg>