<svg width="20" height="20" viewBox="0 0 20 20" fill="none" xmlns="http://www.w3.org/2000/svg"><path fill-rule="evenodd" clip-rule="evenodd" d="M5.907 14.092l.035.036c.539.541 3.947 3.968 6.974 3.87 1.802 0 2.703-.2 4.906-2.604 1.002-1.102-2.503-3.305-3.604-3.405-.684-.062-1.174.492-1.64 1.017-.284.322-.56.633-.864.786-1.301.7-3.704-1.803-3.704-1.803S5.506 9.585 6.107 8.283c.18-.289.492-.552.81-.822.566-.478 1.157-.977 1.093-1.682-.1-1.001-2.303-4.607-3.405-3.605-2.403 2.203-2.603 3.105-2.603 4.907-.1 3.105 3.905 7.011 3.905 7.011zM5.12 3.062c-1.068.995-1.564 1.629-1.816 2.151-.248.514-.3.999-.3 1.868v.017l-.001.016c-.019.565.152 1.233.48 1.961.324.72.774 1.44 1.245 2.088A19.648 19.648 0 006.57 13.34l.028.028.006.006v.001h.001l.009.009.035.035c.256.258 1.15 1.156 2.33 1.999 1.282.916 2.701 1.618 3.904 1.579h.032c.87 0 1.354-.054 1.867-.302.524-.253 1.16-.751 2.16-1.826-.12-.194-.372-.465-.755-.767a7.844 7.844 0 00-1.255-.801 4.932 4.932 0 00-.543-.24 2.047 2.047 0 00-.243-.072.198.198 0 00-.02-.003c-.034-.003-.16-.006-.544.402-.083.088-.165.181-.258.287l-.007.008c-.092.104-.197.222-.304.334-.202.212-.483.483-.838.664-.671.355-1.382.25-1.906.075-.541-.18-1.055-.49-1.473-.784a11.203 11.203 0 01-1.473-1.252l-.022-.023-.023-.022a9.823 9.823 0 01-.39-.405 11.916 11.916 0 01-.868-1.06c-.3-.416-.615-.923-.81-1.453-.187-.51-.326-1.214-.013-1.893l.026-.058.034-.054c.205-.327.483-.593.707-.792a16.735 16.735 0 01.344-.295c.11-.094.209-.178.3-.261.388-.354.405-.487.404-.527a1.48 1.48 0 00-.071-.23A5.193 5.193 0 006.7 5.11a8.382 8.382 0 00-.808-1.27c-.302-.388-.574-.65-.772-.778z" fill="#1A1A1C"/></svg>