<svg width="20" height="20" viewBox="0 0 20 20" fill="none" xmlns="http://www.w3.org/2000/svg"><path fill-rule="evenodd" clip-rule="evenodd" d="M1 5.765A4.765 4.765 0 015.765 1h8.47A4.765 4.765 0 0119 5.765v8.47A4.765 4.765 0 0114.235 19h-8.47A4.765 4.765 0 011 14.235v-8.47zm4.765-3.706a3.706 3.706 0 00-3.706 3.706v8.47a3.706 3.706 0 003.706 3.706h8.47a3.706 3.706 0 003.706-3.706v-8.47a3.706 3.706 0 00-3.706-3.706h-8.47zM10 13.782a3.782 3.782 0 100-7.564 3.782 3.782 0 000 7.563zm0 1.058a4.84 4.84 0 100-9.68 4.84 4.84 0 000 9.68zm4.84-8.47a1.21 1.21 0 100-2.42 1.21 1.21 0 000 2.42z" fill="#1A1A1C"/></svg>