<svg width="22" height="22" viewBox="0 0 22 22" fill="none" xmlns="http://www.w3.org/2000/svg"><path fill-rule="evenodd" clip-rule="evenodd" d="M1 2.55c0-.304.26-.55.582-.55h18.636c.321 0 .582.246.582.55v15.4c0 .304-.26.55-.582.55H1.582c-.321 0-.582-.246-.582-.55V2.55zm1.165.55v14.3h17.47V3.1H2.165zm6.988 3.85c0-.304.26-.55.583-.55h5.823c.322 0 .582.246.582.55 0 .304-.26.55-.582.55H9.736c-.322 0-.583-.246-.583-.55zm.583 2.75c-.322 0-.583.246-.583.55 0 .304.26.55.583.55h5.823c.322 0 .582-.246.582-.55 0-.304-.26-.55-.582-.55H9.736zm-.583 3.85c0-.304.26-.55.583-.55h5.823c.322 0 .582.246.582.55 0 .304-.26.55-.582.55H9.736c-.322 0-.583-.246-.583-.55zm-2.912-2.2c.644 0 1.165-.492 1.165-1.1 0-.608-.521-1.1-1.165-1.1-.643 0-1.164.492-1.164 1.1 0 .607.521 1.1 1.164 1.1zm1.165 2.2c0 .607-.521 1.1-1.165 1.1-.643 0-1.164-.492-1.164-1.1 0-.607.521-1.1 1.164-1.1.644 0 1.165.493 1.165 1.1zm-1.165-5.5c.644 0 1.165-.492 1.165-1.1 0-.608-.521-1.1-1.165-1.1-.643 0-1.164.492-1.164 1.1 0 .608.521 1.1 1.164 1.1z" fill="#1A1A1C"/></svg>