<svg width="22" height="22" viewBox="0 0 22 22" fill="none" xmlns="http://www.w3.org/2000/svg"><path fill-rule="evenodd" clip-rule="evenodd" d="M7.28 0a.59.59 0 00-.415.17L2.172 4.8A.575.575 0 002 5.21v16.21c0 .32.263.579.587.579h16.426c.324 0 .587-.26.587-.579V.58a.583.583 0 00-.587-.58H7.28zm.587 1.158h10.56v19.684H3.173V5.79H7.28a.583.583 0 00.587-.578V1.158zM6.693 4.632h-2.69l2.69-2.655v2.655zm.587 3.473a.583.583 0 00-.587.58c0 .319.263.578.587.578h7.04c.324 0 .587-.26.587-.579a.583.583 0 00-.587-.579H7.28zm-.587 4.053c0-.32.263-.58.587-.58h7.04c.324 0 .587.26.587.58 0 .32-.263.579-.587.579H7.28a.583.583 0 01-.587-.58zm.587 2.895a.583.583 0 00-.587.579c0 .32.263.579.587.579h3.52c.324 0 .587-.26.587-.58a.583.583 0 00-.587-.578H7.28z" fill="#1A1A1C"/></svg>