<svg width="22" height="22" viewBox="0 0 22 22" fill="none" xmlns="http://www.w3.org/2000/svg"><path fill-rule="evenodd" clip-rule="evenodd" d="M7.406 3.76c0-.324.26-.587.582-.587h5.824c.321 0 .582.263.582.587v.587H7.406V3.76zm-1.165.587V3.76c0-.972.782-1.76 1.747-1.76h5.824c.965 0 1.747.788 1.747 1.76v.587h3.494c.965 0 1.747.788 1.747 1.76V17.84c0 .972-.782 1.76-1.747 1.76H2.747A1.754 1.754 0 011 17.84V6.107c0-.972.782-1.76 1.747-1.76h3.494zm-4.076 1.76c0-.324.26-.587.582-.587h16.306c.322 0 .582.263.582.587v3.52h-5.824a.584.584 0 00-.582-.587H8.57a.585.585 0 00-.582.587H2.165v-3.52zm11.646 5.866V10.8h5.824v7.04c0 .324-.26.587-.582.587H2.747a.585.585 0 01-.582-.587V10.8h5.823v1.173c0 .324.26.587.582.587h4.659a.584.584 0 00.582-.587zm-4.659-.586v-1.174h3.495v1.174H9.152z" fill="#1A1A1C"/></svg>