<svg width="22" height="22" viewBox="0 0 22 22" fill="none" xmlns="http://www.w3.org/2000/svg"><path fill-rule="evenodd" clip-rule="evenodd" d="M12.684 2.048a.532.532 0 01.691.244l1.491 2.737h2.084c1.008 0 1.825.876 1.825 1.955v2.142c.425.188.725.636.725 1.159v2.96c0 .522-.3.97-.725 1.158v2.142c0 1.08-.817 1.955-1.825 1.955H4.825C3.817 18.5 3 17.625 3 16.545v-9.56c0-1.08.817-1.956 1.825-1.956h1.362l6.497-2.981zm-.014 1.288l.922 1.693H8.981l3.689-1.693zM4.1 6.984c0-.428.324-.776.725-.776H16.95c.4 0 .725.348.725.776v2.049h-2.637c-1.408 0-2.55 1.223-2.55 2.732 0 1.508 1.142 2.731 2.55 2.731h2.637v2.049c0 .429-.325.776-.725.776H4.825c-.4 0-.725-.347-.725-.776v-9.56zm10.938 3.228h3.293c.038 0 .069.033.069.073v2.96c0 .04-.031.073-.069.073h-3.293c-.8 0-1.45-.696-1.45-1.553 0-.858.65-1.553 1.45-1.553zm.637 2.236c-.352 0-.637-.306-.637-.683 0-.378.285-.683.637-.683.352 0 .638.305.638.683 0 .377-.286.682-.638.682z" fill="#1A1A1C"/></svg>