<svg width="22" height="22" viewBox="0 0 22 22" fill="none" xmlns="http://www.w3.org/2000/svg"><path fill-rule="evenodd" clip-rule="evenodd" d="M11 19.846a8.846 8.846 0 100-17.692 8.846 8.846 0 000 17.692zM11 21c5.523 0 10-4.477 10-10S16.523 1 11 1 1 5.477 1 11s4.477 10 10 10zm-.082-6.192a.68.68 0 100-1.36.68.68 0 000 1.36zm-2.203-5.44c0-1.2.976-2.176 2.176-2.176 1.2 0 2.176.976 2.176 2.176a2.18 2.18 0 01-1.632 2.107v.885a.544.544 0 11-1.088 0V11c0-.3.244-.544.544-.544a1.09 1.09 0 000-2.176c-.6 0-1.088.488-1.088 1.088a.544.544 0 11-1.088 0z" fill="#1A1A1C"/></svg>