<svg width="94" height="20" viewBox="0 0 94 20" fill="none" xmlns="http://www.w3.org/2000/svg"><path d="M92.11 15.435h-1.808c-.5 0-.904.403-.904.899v1.796c0 .497.405.899.904.899h1.808a.901.901 0 00.904-.899v-1.796a.901.901 0 00-.904-.899z" fill="#DA0336"/><path d="M2.57 19.029L0 1.029h2.773L4.27 12.694 6.15 1.072h2.264l1.924 11.622L11.813 1.03h2.727l-2.527 18H9.331L7.311 6.964 5.322 19.029H2.571zm13.38 0v-18h4.45a9.864 9.864 0 012.18.221 4.438 4.438 0 011.677.745 3.35 3.35 0 011.084 1.41c.276.718.405 1.483.38 2.25a5.152 5.152 0 01-.301 1.868 2.834 2.834 0 01-.883 1.232 3.214 3.214 0 01-1.454.61c.647.091 1.26.348 1.778.745.476.39.837.9 1.045 1.478.248.707.366 1.452.348 2.2a7.304 7.304 0 01-.324 2.278 4.175 4.175 0 01-.961 1.644 4.048 4.048 0 01-1.583.985 6.75 6.75 0 01-2.226.332l-5.21.002zm3.31-10.644h1.118c.655 0 1.162-.096 1.52-.29a1.56 1.56 0 00.75-.887c.154-.489.226-1 .212-1.511 0-.637-.108-1.13-.324-1.478a1.638 1.638 0 00-.974-.712 6.095 6.095 0 00-1.654-.188h-.648v5.066zm0 8.333h1.252c.999 0 1.677-.24 2.034-.722.358-.48.537-1.226.537-2.234a5.082 5.082 0 00-.256-1.765 1.89 1.89 0 00-.85-1.011 3.2 3.2 0 00-1.568-.334h-1.14l-.01 6.066zm7.975 2.311l3.666-18h3.574l3.657 18h-3.1l-.724-4.154h-3.174l-.747 4.154h-3.152zm4.23-6.243h2.489l-1.243-7.557-1.246 7.557zm8.053 6.243v-18h2.375l4.546 10.265V1.031h2.816v18h-2.264L42.423 8.276V19.03l-2.905-.002zm11.924 0v-18h4.32c1.494 0 2.66.2 3.5.599a3.536 3.536 0 011.79 1.845c.349.83.526 1.881.532 3.155v6.577c0 1.305-.178 2.39-.532 3.255a3.67 3.67 0 01-1.773 1.935c-.824.423-1.953.634-3.387.634h-4.45zm3.353-2.288h1.02c.77 0 1.322-.133 1.653-.4a1.76 1.76 0 00.613-1.167c.082-.622.12-1.25.113-1.877v-6.89a7.934 7.934 0 00-.158-1.757 1.508 1.508 0 00-.658-.978c-.334-.207-.87-.31-1.608-.31h-.975V16.74zm8.935 2.288v-18h3.265v18h-3.266zm7.593 0V3.452h-2.884V1.029h9.033v2.423h-2.84v15.577h-3.31zm12.071.244c-1.088 0-1.997-.21-2.728-.632a3.988 3.988 0 01-1.654-1.85c-.373-.814-.582-1.813-.627-3l2.839-.562c.019.622.105 1.24.256 1.845.103.461.327.887.65 1.234a1.57 1.57 0 001.15.433c.537 0 .917-.16 1.141-.478.235-.36.352-.783.335-1.212 0-.784-.18-1.428-.537-1.933a8.283 8.283 0 00-1.431-1.51l-2.278-2a6.849 6.849 0 01-1.533-1.834c-.38-.673-.57-1.506-.57-2.5 0-1.422.418-2.518 1.253-3.288S81.635.83 83.08.83a5.1 5.1 0 012.125.39 3.389 3.389 0 011.353 1.076c.342.474.595 1.005.75 1.568.166.606.271 1.228.313 1.855l-2.818.488a9.616 9.616 0 00-.19-1.51 2.097 2.097 0 00-.523-1.04c-.247-.252-.607-.378-1.085-.378a1.377 1.377 0 00-1.128.48 1.808 1.808 0 00-.392 1.187c-.022.526.11 1.047.38 1.5.306.453.675.86 1.095 1.212l2.264 1.976a9.365 9.365 0 011.916 2.19c.527.837.791 1.848.792 3.032a4.543 4.543 0 01-.57 2.281 4.065 4.065 0 01-1.587 1.566 4.816 4.816 0 01-2.381.57z" fill="#1A1A1C"/></svg>