<svg width="228" height="47" viewBox="0 0 228 47" fill="none" xmlns="http://www.w3.org/2000/svg"><path d="M224.828 37.089h-4.413c-1.218 0-2.206 1.005-2.206 2.245v4.492c0 1.24.988 2.245 2.206 2.245h4.413c1.218 0 2.206-1.005 2.206-2.245v-4.492c0-1.24-.988-2.245-2.206-2.245z" fill="#DA0336"/><path d="M6.274 46.071L0 1.071h6.768l3.655 29.164L15.01 1.18h5.526l4.698 29.055 3.6-29.164h6.657l-6.168 45h-6.547l-4.93-30.163-4.855 30.163H6.274zm32.66.001v-45h10.862a23.523 23.523 0 015.318.553c1.477.322 2.872.956 4.093 1.86a8.37 8.37 0 012.648 3.527 14.69 14.69 0 01.927 5.625 13.158 13.158 0 01-.735 4.67 7.083 7.083 0 01-2.155 3.08 7.748 7.748 0 01-3.55 1.527 9.102 9.102 0 014.34 1.86 8.5 8.5 0 012.55 3.696c.606 1.766.894 3.63.851 5.5a18.672 18.672 0 01-.79 5.694 10.498 10.498 0 01-2.347 4.11 9.848 9.848 0 01-3.864 2.462 16.116 16.116 0 01-5.433.831l-12.715.005zm8.077-26.611h2.73c1.598 0 2.835-.238 3.71-.723a3.878 3.878 0 001.828-2.22c.377-1.22.553-2.497.519-3.777 0-1.592-.264-2.824-.79-3.695a4.006 4.006 0 00-2.377-1.778 14.542 14.542 0 00-4.038-.472H47.01v12.665zm0 20.834h3.057c2.437 0 4.092-.601 4.965-1.804.873-1.203 1.309-3.065 1.309-5.586a12.986 12.986 0 00-.625-4.414 4.696 4.696 0 00-2.074-2.527 7.656 7.656 0 00-3.826-.835h-2.785l-.02 15.166zm19.465 5.776l8.948-45h8.723l8.927 45h-7.566l-1.769-10.384h-7.745L74.17 46.07h-7.694zm10.326-15.607h6.074l-3.035-18.891-3.04 18.891zm19.656 15.607v-45h5.798l11.095 25.663V1.076h6.874v45h-5.526l-11.15-26.888v26.888l-7.09-.005zm29.106 0v-45h10.543c3.647 0 6.495.5 8.544 1.498a8.746 8.746 0 014.37 4.612c.85 2.074 1.282 4.703 1.296 7.888v16.442c0 3.263-.432 5.976-1.296 8.14a9.096 9.096 0 01-4.328 4.837c-2.012 1.056-4.768 1.583-8.268 1.583h-10.861zm8.183-5.72h2.491c1.879 0 3.227-.333 4.034-1a4.437 4.437 0 001.497-2.916c.2-1.556.293-3.125.276-4.694V14.515a20.288 20.288 0 00-.387-4.392 3.821 3.821 0 00-.56-1.388 3.746 3.746 0 00-1.047-1.056c-.813-.517-2.121-.775-3.923-.775h-2.381v33.447zm21.808 5.72v-45h7.97v45h-7.97zm18.534 0V7.13h-7.04V1.071h22.05V7.13h-6.934v38.942h-8.076zm29.463.61c-2.656 0-4.875-.526-6.657-1.579a9.901 9.901 0 01-4.039-4.625c-.909-2.034-1.419-4.533-1.53-7.499l6.929-1.406c.046 1.556.256 3.102.625 4.612a6.755 6.755 0 001.586 3.086 3.81 3.81 0 001.296.833c.483.186.998.27 1.514.248 1.309 0 2.237-.398 2.784-1.194.573-.9.858-1.958.816-3.029 0-1.961-.436-3.572-1.309-4.833a20.504 20.504 0 00-3.494-3.777l-5.561-4.998a17.046 17.046 0 01-3.741-4.587c-.926-1.681-1.39-3.764-1.39-6.248 0-3.556 1.019-6.297 3.057-8.22 2.037-1.925 4.82-2.888 8.349-2.891a12.188 12.188 0 015.186.973 8.315 8.315 0 013.303 2.692 12.332 12.332 0 011.828 3.92c.408 1.516.665 3.07.765 4.638l-6.878 1.22a24.72 24.72 0 00-.463-3.777 5.3 5.3 0 00-1.276-2.596c-.603-.632-1.483-.948-2.648-.948a3.29 3.29 0 00-1.517.268 3.35 3.35 0 00-1.238.931 4.593 4.593 0 00-.956 2.968 6.902 6.902 0 00.927 3.752 14.55 14.55 0 002.673 3.028l5.527 4.942a23.27 23.27 0 014.676 5.473c1.286 2.095 1.931 4.622 1.934 7.581a11.586 11.586 0 01-1.39 5.703 10.038 10.038 0 01-3.877 3.916 11.53 11.53 0 01-5.811 1.423z" fill="#1A1A1C"/></svg>