<svg width="150" height="150" viewBox="0 0 150 150" fill="none" xmlns="http://www.w3.org/2000/svg"><rect width="150" height="150" rx="75" fill="#fff"/><path fill-rule="evenodd" clip-rule="evenodd" d="M75.036 46.114a1 1 0 01.928 0l24.5 12.834c.33.172.536.513.536.885v29.334a.999.999 0 01-.536.885l-24.5 12.834c-.29.152-.637.152-.928 0l-24.5-12.834a1 1 0 01-.536-.885V59.833a1 1 0 01.536-.886l24.5-12.833zM66.62 52.78l21.156 12.328 10.069-5.275L75.5 48.13l-8.88 4.651zM99 61.486l-10.25 5.37v9.477a1 1 0 11-2 0v-8.43L76.5 73.272v27.075L99 88.562V61.486zm-24.5 38.861V73.272L52 61.486v27.076l22.5 11.785zM53.155 59.833L75.5 71.538l10.184-5.335-21.156-12.327-11.373 5.957z" fill="#1A1A1C"/></svg>