<svg width="20" height="20" viewBox="0 0 20 20" fill="none" xmlns="http://www.w3.org/2000/svg">
<path fill-rule="evenodd" clip-rule="evenodd" d="M11.4158 5.27048L10.0001 6.75241L8.58334 5.26929C7.14157 3.75503 4.87747 3.57308 3.40237 4.8498C1.63335 6.3839 1.53471 9.16051 3.12371 10.8293L9.92571 17.9643C9.95392 17.9938 9.97942 18 9.99838 18C10.0173 18 10.0428 17.9938 10.071 17.9643L16.8735 10.8289C18.4652 9.16015 18.3668 6.38382 16.5979 4.8498C15.1232 3.57342 12.8617 3.75491 11.4158 5.27048ZM17.2527 4.09402C19.4605 6.00827 19.5765 9.44393 17.5973 11.5189L10.7947 18.6545C10.3552 19.1152 9.64155 19.1152 9.20211 18.6545L2.3995 11.5189C0.423758 9.44393 0.539771 6.00827 2.74754 4.09402C4.67407 2.4262 7.54276 2.72619 9.30757 4.57973L10.0001 5.30472L10.6927 4.57973C12.461 2.72619 15.3262 2.4262 17.2527 4.09402Z" fill="#1A1A1C"/>
</svg>
