<svg width="15" height="15" viewBox="0 0 15 15" fill="none" xmlns="http://www.w3.org/2000/svg">
<path fill-rule="evenodd" clip-rule="evenodd" d="M1.5 3.5C1.5 3.22386 1.72386 3 2 3H13C13.2761 3 13.5 3.22386 13.5 3.5C13.5 3.77614 13.2761 4 13 4H2C1.72386 4 1.5 3.77614 1.5 3.5Z" fill="#1A1A1C"/>
<path fill-rule="evenodd" clip-rule="evenodd" d="M3.5 7.5C3.5 7.22386 3.72386 7 4 7L11 7C11.2761 7 11.5 7.22386 11.5 7.5C11.5 7.77614 11.2761 8 11 8L4 8C3.72386 8 3.5 7.77614 3.5 7.5Z" fill="#1A1A1C"/>
<path fill-rule="evenodd" clip-rule="evenodd" d="M5.5 11.5C5.5 11.2239 5.72386 11 6 11L9 11C9.27614 11 9.5 11.2239 9.5 11.5C9.5 11.7761 9.27614 12 9 12L6 12C5.72386 12 5.5 11.7761 5.5 11.5Z" fill="#1A1A1C"/>
</svg>
