<svg width="18" height="18" viewBox="0 0 18 18" fill="none" xmlns="http://www.w3.org/2000/svg">
<path fill-rule="evenodd" clip-rule="evenodd" d="M10.2461 3.95799L9.00031 5.26208L7.75353 3.95694C6.48477 2.62438 4.49236 2.46427 3.19428 3.58778C1.63754 4.93779 1.55073 7.38121 2.94905 8.84975L8.93481 15.1285C8.95963 15.1545 8.98208 15.16 8.99876 15.16C9.01545 15.16 9.03789 15.1545 9.06271 15.1285L15.0488 8.84937C16.4496 7.3809 16.363 4.93772 14.8063 3.58778C13.5086 2.46457 11.5185 2.62428 10.2461 3.95799ZM15.3826 2.9227C17.3254 4.60724 17.4275 7.63062 15.6858 9.45658L9.69948 15.7359C9.31277 16.1413 8.68475 16.1413 8.29804 15.7359L2.31175 9.45658C0.573092 7.63062 0.675184 4.60724 2.61802 2.9227C4.31337 1.45501 6.83782 1.71901 8.39085 3.35012L9.00031 3.98811L9.60977 3.35012C11.1659 1.71901 13.6873 1.45501 15.3826 2.9227Z" fill="#1A1A1C"/>
</svg>
