<svg width="22" height="22" viewBox="0 0 22 22" fill="none" xmlns="http://www.w3.org/2000/svg">
<path d="M18.1979 8.81319C17.8243 8.81319 11.4348 8.81319 11.2933 8.81319C11.2933 7.49529 11.2938 7.61681 11.2925 7.59904C11.2601 6.33012 9.39506 5.5 7.29669 5.5C5.14201 5.50003 3.30005 6.36484 3.30005 7.63192V13.2681C3.30005 13.8985 3.76136 14.4649 4.59901 14.8629C5.32795 15.2093 6.28597 15.4 7.29663 15.4H9.76196H12.6995H15.637H18.1979C18.4752 15.4 18.7 15.1888 18.7 14.9284V9.28482C18.7001 9.02432 18.4752 8.81319 18.1979 8.81319ZM4.30496 7.6239C4.31702 7.12812 5.45265 6.44325 7.29666 6.44325C9.15056 6.44325 10.2889 7.13561 10.2889 7.63195C10.2889 8.09996 9.59147 8.81319 7.24805 8.81319C5.32867 8.81319 4.30439 8.12567 4.30439 7.63189C4.30439 7.62924 4.30487 7.62658 4.30496 7.6239ZM17.6957 14.4568H16.1392V13.3112C16.1392 13.0508 15.9143 12.8396 15.637 12.8396C15.3597 12.8396 15.1349 13.0508 15.1349 13.3112V14.4568H13.2017V13.3112C13.2017 13.0508 12.9768 12.8396 12.6995 12.8396C12.4222 12.8396 12.1974 13.0508 12.1974 13.3112V14.4568H10.2642V13.3112C10.2642 13.0508 10.0393 12.8396 9.76202 12.8396C9.4847 12.8396 9.25986 13.0508 9.25986 13.3112V14.4568H7.29669C5.44279 14.4568 4.30442 13.7644 4.30442 13.2681V9.07078C5.1464 9.56783 6.29102 9.76379 7.29669 9.76379C7.29669 9.76379 17.6956 9.75639 17.6958 9.75639V14.4568H17.6957Z" fill="#1A1A1C"/>
</svg>
