<svg width="22" height="22" viewBox="0 0 22 22" fill="none" xmlns="http://www.w3.org/2000/svg">
<path fill-rule="evenodd" clip-rule="evenodd" d="M6.4975 15.5012C6.50843 15.5121 6.52146 15.5252 6.53653 15.5404C7.12902 16.1361 10.8777 19.9051 14.2074 19.7977C16.19 19.7977 17.1812 19.5774 19.6043 16.9334C20.7058 15.7215 16.8508 13.2979 15.6392 13.1877C14.8879 13.1194 14.3483 13.729 13.8367 14.307C13.5233 14.6611 13.2204 15.0033 12.8857 15.1707C11.4539 15.9419 8.81047 13.1877 8.81047 13.1877C8.81047 13.1877 6.05693 10.5437 6.71778 9.11151C6.91644 8.79359 7.25842 8.50433 7.6093 8.20755C8.23112 7.68161 8.88088 7.13203 8.81047 6.35734C8.70033 5.25567 6.27722 1.28967 5.06566 2.39133C2.42227 4.81501 2.20198 5.80651 2.20198 7.78951C2.09184 11.2047 6.4975 15.5012 6.4975 15.5012ZM5.6319 3.36797C4.45749 4.46254 3.91183 5.15987 3.63443 5.73462C3.36195 6.29918 3.3034 6.83293 3.3034 7.78951V7.80727L3.30282 7.82503C3.28276 8.44716 3.47023 9.18157 3.83099 9.98291C4.18763 10.7751 4.68315 11.5659 5.20025 12.2795C5.71508 12.99 6.2358 13.6029 6.62874 14.0387C6.82462 14.2559 6.98723 14.4275 7.09947 14.5433C7.15555 14.6013 7.19895 14.6451 7.22752 14.6738L7.25893 14.705L7.26576 14.7118L7.2664 14.7124L7.26666 14.7127L7.26683 14.7128L7.26687 14.7129L7.27638 14.7221L7.27632 14.7222C7.28712 14.733 7.29986 14.7458 7.31449 14.7605C7.59663 15.0441 8.58039 16.0329 9.87745 16.9595C11.2881 17.9674 12.8491 18.7393 14.1719 18.6966L14.1896 18.696H14.2074C15.1638 18.696 15.6974 18.6375 16.2618 18.3649C16.8382 18.0866 17.538 17.5383 18.6382 16.356C18.5058 16.1425 18.2276 15.8442 17.8071 15.5124C17.3792 15.1749 16.8802 14.8622 16.4257 14.6311C16.1994 14.516 15.996 14.4272 15.8285 14.3667C15.7453 14.3366 15.6768 14.3157 15.6235 14.3021C15.5972 14.2954 15.5766 14.291 15.5616 14.2883C15.5463 14.2855 15.5392 14.2848 15.5395 14.2848C15.5019 14.2814 15.3633 14.2776 14.9413 14.7269C14.8501 14.824 14.7596 14.9263 14.6569 15.0423L14.6493 15.0509C14.548 15.1654 14.4332 15.2949 14.315 15.4191C14.0931 15.6522 13.7839 15.9496 13.3931 16.1486C12.655 16.539 11.8734 16.4236 11.2966 16.2313C10.7019 16.033 10.1366 15.6932 9.67656 15.3688C9.20724 15.0379 8.79538 14.6857 8.50421 14.4204C8.3574 14.2867 8.23838 14.1724 8.15482 14.0902C8.11298 14.0491 8.07986 14.0159 8.05643 13.9921L8.03168 13.9669L8.00671 13.9424C7.98312 13.9192 7.95005 13.8863 7.90903 13.8446C7.8271 13.7615 7.71289 13.643 7.57886 13.4968C7.31284 13.2067 6.95909 12.7972 6.62303 12.3311C6.29309 11.8736 5.94672 11.3161 5.73226 10.7329C5.52596 10.1719 5.37303 9.39691 5.71774 8.64985L5.7469 8.58665L5.78379 8.52763C6.00904 8.16715 6.31516 7.87461 6.56123 7.65604C6.67409 7.55579 6.79179 7.45625 6.89829 7.36618C6.91222 7.3544 6.92595 7.34279 6.93946 7.33135C7.06116 7.22834 7.16942 7.13588 7.26986 7.04428C7.69625 6.65543 7.71576 6.50838 7.71409 6.46458C7.71142 6.45016 7.69532 6.37 7.636 6.21134C7.57512 6.04852 7.48555 5.8473 7.36947 5.62121C7.13651 5.16745 6.82161 4.66159 6.48169 4.22445C6.14939 3.79709 5.84953 3.50875 5.6319 3.36797Z" fill="#1A1A1C"/>
</svg>
