<svg width="22" height="22" viewBox="0 0 22 22" fill="none" xmlns="http://www.w3.org/2000/svg">
<path fill-rule="evenodd" clip-rule="evenodd" d="M12.7453 4.13739C11.3584 3.8615 9.92073 4.0031 8.61424 4.54426C7.30775 5.08543 6.19107 6.00186 5.40542 7.17768C4.66128 8.29136 4.24576 9.59035 4.20393 10.9261L2.93891 9.6611C2.72412 9.44632 2.37588 9.44632 2.16109 9.6611C1.9463 9.87589 1.9463 10.2241 2.16109 10.4389L4.36109 12.6389C4.57588 12.8537 4.92412 12.8537 5.13891 12.6389L7.33891 10.4389C7.5537 10.2241 7.5537 9.87589 7.33891 9.6611C7.12412 9.44632 6.77588 9.44632 6.56109 9.6611L5.3049 10.9173C5.34781 9.80226 5.69842 8.71912 6.32003 7.7888C6.98482 6.79388 7.9297 6.01844 9.03519 5.56053C10.1407 5.10262 11.3571 4.98281 12.5307 5.21625C13.7043 5.44969 14.7823 6.0259 15.6284 6.87201C16.4745 7.71811 17.0507 8.79612 17.2842 9.96971C17.5176 11.1433 17.3978 12.3597 16.9399 13.4652C16.482 14.5707 15.7065 15.5156 14.7116 16.1804C13.7167 16.8452 12.547 17.2 11.3504 17.2C11.0467 17.2 10.8004 17.4462 10.8004 17.75C10.8004 18.0538 11.0467 18.3 11.3504 18.3C12.7646 18.3 14.1469 17.8807 15.3228 17.095C16.4986 16.3094 17.415 15.1927 17.9562 13.8862C18.4973 12.5797 18.6389 11.1421 18.363 9.75511C18.0872 8.36814 17.4062 7.09414 16.4062 6.09419C15.4063 5.09424 14.1323 4.41327 12.7453 4.13739Z" fill="#1A1A1C"/>
</svg>
