<svg width="20" height="20" viewBox="0 0 20 20" fill="none" xmlns="http://www.w3.org/2000/svg">
<path fill-rule="evenodd" clip-rule="evenodd" d="M16.8389 11.5C16.9444 11.0168 17 10.5149 17 10C17 9.48513 16.9444 8.98323 16.8389 8.5H13.8964C13.963 8.9738 14 9.47381 14 9.99999C14 10.5262 13.963 11.0262 13.8964 11.5H16.8389ZM12.8854 11.5H7.11456C7.04126 11.0297 7 10.5298 7 9.99999C7 9.47022 7.04125 8.97025 7.11456 8.5H12.8854C12.9587 8.97025 13 9.47022 13 9.99999C13 10.5298 12.9587 11.0297 12.8854 11.5ZM13.7051 7.5H16.5404C15.6968 5.29435 13.7695 3.6246 11.4099 3.14205C11.647 3.40687 11.9034 3.72223 12.1596 4.08826C12.7602 4.94624 13.3604 6.08419 13.7051 7.5ZM10 3.14546C10.0601 3.19847 10.128 3.26025 10.202 3.33081C10.5105 3.62454 10.9251 4.06843 11.3404 4.66172C11.8474 5.38597 12.3547 6.33148 12.6725 7.5H7.32752C7.64532 6.33148 8.15264 5.38597 8.65962 4.66172C9.07492 4.06843 9.48953 3.62454 9.79795 3.33081C9.87204 3.26025 9.93988 3.19847 10 3.14546ZM12.6725 12.5C12.3547 13.6685 11.8474 14.614 11.3404 15.3383C10.9251 15.9316 10.5105 16.3754 10.202 16.6692C10.128 16.7397 10.0601 16.8015 10 16.8545C9.93988 16.8015 9.87204 16.7397 9.79795 16.6692C9.48953 16.3754 9.07492 15.9316 8.65962 15.3383C8.15264 14.614 7.64532 13.6685 7.32753 12.5H12.6725ZM11.4099 16.858C11.6469 16.5931 11.9034 16.2778 12.1596 15.9117C12.7602 15.0537 13.3604 13.9158 13.7051 12.5H16.5404C15.6968 14.7057 13.7695 16.3754 11.4099 16.858ZM6 9.99999C6 9.47381 6.037 8.9738 6.10359 8.5H3.16109C3.05559 8.98323 3 9.48513 3 10C3 10.5149 3.05559 11.0168 3.16109 11.5H6.10359C6.037 11.0262 6 10.5262 6 9.99999ZM7.84038 4.08826C8.0966 3.72223 8.35304 3.40687 8.59008 3.14205C6.23048 3.6246 4.30323 5.29435 3.45963 7.5H6.29488C6.63961 6.08419 7.2398 4.94624 7.84038 4.08826ZM3.45963 12.5H6.29488C6.63961 13.9158 7.2398 15.0537 7.84038 15.9117C8.09661 16.2778 8.35305 16.5931 8.5901 16.858C6.23049 16.3754 4.30323 14.7057 3.45963 12.5ZM10 18C14.4183 18 18 14.4183 18 10C18 5.58172 14.4183 2 10 2C5.58172 2 2 5.58172 2 10C2 14.4183 5.58172 18 10 18Z" fill="#1A1A1C"/>
</svg>
