<svg width="22" height="22" viewBox="0 0 22 22" fill="none" xmlns="http://www.w3.org/2000/svg">
<path fill-rule="evenodd" clip-rule="evenodd" d="M12.6835 2.04769C12.9387 1.9306 13.2352 2.03551 13.3751 2.29234L14.866 5.02929H16.9503C17.958 5.02929 18.775 5.90461 18.775 6.98437V9.12649C19.2003 9.31371 19.4997 9.76189 19.4997 10.285V13.2442C19.4997 13.7673 19.2003 14.2155 18.775 14.4027V16.5449C18.775 17.6247 17.958 18.5 16.9503 18.5H4.82475C3.81697 18.5 3 17.6247 3 16.5449V6.98437C3 5.90461 3.81697 5.02929 4.82475 5.02929H6.18719L12.6835 2.04769ZM12.67 3.33605L13.5923 5.02929H8.98075L12.67 3.33605ZM4.1 6.98437C4.1 6.55552 4.42448 6.20786 4.82475 6.20786H16.9503C17.3505 6.20786 17.675 6.55552 17.675 6.98437V9.03302H15.0381C13.63 9.03302 12.4886 10.256 12.4886 11.7646C12.4886 13.2732 13.63 14.4962 15.0381 14.4962H17.675V16.5449C17.675 16.9738 17.3505 17.3214 16.9503 17.3214H4.82475C4.42448 17.3214 4.1 16.9738 4.1 16.5449V6.98437ZM15.0381 10.2116H18.3312C18.369 10.2116 18.3997 10.2445 18.3997 10.285V13.2442C18.3997 13.2848 18.369 13.3176 18.3312 13.3176H15.0381C14.2375 13.3176 13.5886 12.6223 13.5886 11.7646C13.5886 10.9069 14.2375 10.2116 15.0381 10.2116ZM15.6754 12.4475C15.3234 12.4475 15.038 12.1418 15.038 11.7646C15.038 11.3874 15.3234 11.0817 15.6754 11.0817C16.0274 11.0817 16.3128 11.3874 16.3128 11.7646C16.3128 12.1418 16.0274 12.4475 15.6754 12.4475Z" fill="#1A1A1C"/>
</svg>
