<svg width="22" height="22" viewBox="0 0 22 22" fill="none" xmlns="http://www.w3.org/2000/svg">
<path fill-rule="evenodd" clip-rule="evenodd" d="M7.40585 3.76C7.40585 3.43599 7.66658 3.17333 7.9882 3.17333H13.8117C14.1334 3.17333 14.3941 3.43599 14.3941 3.76V4.34668H7.40585V3.76ZM6.24114 4.34668V3.76C6.24114 2.78798 7.02333 2 7.9882 2H13.8117C14.7766 2 15.5588 2.78798 15.5588 3.76V4.34668H19.0529C20.0178 4.34668 20.8 5.13466 20.8 6.10668V17.84C20.8 18.812 20.0178 19.6 19.0529 19.6H2.74706C1.78218 19.6 1 18.812 1 17.84V6.10668C1 5.13466 1.78219 4.34668 2.74706 4.34668H6.24114ZM2.16471 6.10668C2.16471 5.78268 2.42543 5.52002 2.74706 5.52002H19.0529C19.3746 5.52002 19.6353 5.78268 19.6353 6.10668V9.62668L13.8113 9.62668C13.8113 9.30267 13.5506 9.04002 13.229 9.04002H8.57015C8.24852 9.04002 7.9878 9.30267 7.98779 9.62668H2.16471V6.10668ZM13.8113 11.9733V10.8H19.6353V17.84C19.6353 18.164 19.3746 18.4267 19.0529 18.4267H2.74706C2.42543 18.4267 2.16471 18.164 2.16471 17.84V10.8H7.98779V11.9733C7.98779 12.2974 8.24852 12.56 8.57015 12.56H13.229C13.5506 12.56 13.8113 12.2974 13.8113 11.9733ZM9.1525 11.3867V10.8H9.15281V10.2133H12.6466V11.3867H9.1525Z" fill="#1A1A1C"/>
</svg>
