<svg width="22" height="22" viewBox="0 0 22 22" fill="none" xmlns="http://www.w3.org/2000/svg">
<path fill-rule="evenodd" clip-rule="evenodd" d="M1 2.55C1 2.24624 1.26073 2 1.58235 2H20.2176C20.5393 2 20.8 2.24624 20.8 2.55V17.95C20.8 18.2538 20.5393 18.5 20.2176 18.5H1.58235C1.26073 18.5 1 18.2538 1 17.95V2.55ZM2.16471 3.1V17.4H19.6353V3.1H2.16471ZM9.15315 6.95C9.15315 6.64624 9.41388 6.4 9.73551 6.4H15.559C15.8807 6.4 16.1414 6.64624 16.1414 6.95C16.1414 7.25376 15.8807 7.5 15.559 7.5H9.73551C9.41388 7.5 9.15315 7.25376 9.15315 6.95ZM9.73551 9.7C9.41388 9.7 9.15315 9.94624 9.15315 10.25C9.15315 10.5538 9.41388 10.8 9.73551 10.8H15.559C15.8807 10.8 16.1414 10.5538 16.1414 10.25C16.1414 9.94624 15.8807 9.7 15.559 9.7H9.73551ZM9.15315 13.55C9.15315 13.2462 9.41388 13 9.73551 13H15.559C15.8807 13 16.1414 13.2462 16.1414 13.55C16.1414 13.8538 15.8807 14.1 15.559 14.1H9.73551C9.41388 14.1 9.15315 13.8538 9.15315 13.55ZM6.24128 11.35C6.88453 11.35 7.40599 10.8575 7.40599 10.25C7.40599 9.64249 6.88453 9.15 6.24128 9.15C5.59803 9.15 5.07658 9.64249 5.07658 10.25C5.07658 10.8575 5.59803 11.35 6.24128 11.35ZM7.40599 13.55C7.40599 14.1575 6.88453 14.65 6.24128 14.65C5.59803 14.65 5.07658 14.1575 5.07658 13.55C5.07658 12.9425 5.59803 12.45 6.24128 12.45C6.88453 12.45 7.40599 12.9425 7.40599 13.55ZM6.24128 8.05C6.88453 8.05 7.40599 7.55751 7.40599 6.95C7.40599 6.34249 6.88453 5.85 6.24128 5.85C5.59803 5.85 5.07658 6.34249 5.07658 6.95C5.07658 7.55751 5.59803 8.05 6.24128 8.05Z" fill="#1A1A1C"/>
</svg>
