<svg width="20" height="20" viewBox="0 0 20 20" fill="none" xmlns="http://www.w3.org/2000/svg">
<path fill-rule="evenodd" clip-rule="evenodd" d="M1 5.76471C1 3.13323 3.13323 1 5.76471 1H14.2353C16.8668 1 19 3.13323 19 5.76471V14.2353C19 16.8668 16.8668 19 14.2353 19H5.76471C3.13323 19 1 16.8668 1 14.2353V5.76471ZM5.76471 2.05882C3.718 2.05882 2.05882 3.718 2.05882 5.76471V14.2353C2.05882 16.282 3.718 17.9412 5.76471 17.9412H14.2353C16.282 17.9412 17.9412 16.282 17.9412 14.2353V5.76471C17.9412 3.718 16.282 2.05882 14.2353 2.05882H5.76471ZM10 13.7815C12.0885 13.7815 13.7815 12.0884 13.7815 9.99995C13.7815 7.91148 12.0885 6.21844 10 6.21844C7.91153 6.21844 6.21849 7.91148 6.21849 9.99995C6.21849 12.0884 7.91153 13.7815 10 13.7815ZM10 14.8403C12.6732 14.8403 14.8403 12.6732 14.8403 9.99995C14.8403 7.3267 12.6732 5.15961 10 5.15961C7.32676 5.15961 5.15967 7.3267 5.15967 9.99995C5.15967 12.6732 7.32676 14.8403 10 14.8403ZM14.8405 6.36975C15.5088 6.36975 16.0505 5.82797 16.0505 5.15966C16.0505 4.49135 15.5088 3.94958 14.8405 3.94958C14.1721 3.94958 13.6304 4.49135 13.6304 5.15966C13.6304 5.82797 14.1721 6.36975 14.8405 6.36975Z" fill="#1A1A1C"/>
</svg>
