<svg width="20" height="20" viewBox="0 0 20 20" fill="none" xmlns="http://www.w3.org/2000/svg">
<path fill-rule="evenodd" clip-rule="evenodd" d="M5.90686 14.092C5.9168 14.102 5.92864 14.1139 5.94234 14.1277C6.48098 14.6692 9.88887 18.0956 12.9159 17.998C14.7182 17.998 15.6193 17.7976 17.8222 15.394C18.8235 14.2923 15.319 12.089 14.2175 11.9889C13.5345 11.9267 13.044 12.4809 12.5789 13.0064C12.294 13.3283 12.0186 13.6394 11.7143 13.7916C10.4127 14.4926 8.00956 11.9889 8.00956 11.9889C8.00956 11.9889 5.50635 9.58521 6.10712 8.28324C6.28772 7.99422 6.59861 7.73126 6.91759 7.46146C7.48288 6.98333 8.07357 6.48371 8.00956 5.77945C7.90944 4.77793 5.70661 1.17247 4.60519 2.17399C2.2021 4.37732 2.00185 5.27869 2.00185 7.08142C1.90172 10.1861 5.90686 14.092 5.90686 14.092ZM5.11995 3.06183C4.05231 4.0569 3.55626 4.69083 3.30407 5.21334C3.05636 5.72658 3.00313 6.2118 3.00313 7.08142V7.09757L3.00261 7.11371C2.98437 7.67928 3.1548 8.34693 3.48276 9.07541C3.80698 9.79562 4.25746 10.5145 4.72755 11.1633C5.19558 11.8092 5.66896 12.3663 6.02618 12.7625C6.20424 12.96 6.35207 13.1159 6.45411 13.2213C6.50509 13.2739 6.54455 13.3138 6.57051 13.3398L6.59907 13.3683L6.60528 13.3744L6.60586 13.375L6.6061 13.3752L6.60625 13.3753L6.60629 13.3754L6.61494 13.3838L6.61488 13.3839C6.6247 13.3937 6.63628 13.4053 6.64958 13.4187C6.90607 13.6765 7.8004 14.5754 8.97955 15.4178C10.2619 16.334 11.6811 17.0358 12.8836 16.997L12.8997 16.9964H12.9159C13.7853 16.9964 14.2704 16.9432 14.7835 16.6954C15.3075 16.4424 15.9436 15.9439 16.9438 14.8691C16.8235 14.675 16.5706 14.4038 16.1883 14.1022C15.7993 13.7954 15.3456 13.5111 14.9325 13.301C14.7267 13.1964 14.5418 13.1157 14.3896 13.0607C14.3139 13.0334 14.2517 13.0143 14.2032 13.002C14.1793 12.9959 14.1606 12.9919 14.1469 12.9894C14.133 12.9868 14.1266 12.9862 14.1269 12.9863C14.0927 12.9831 13.9667 12.9797 13.5831 13.3881C13.5002 13.4764 13.4178 13.5694 13.3245 13.6749L13.3176 13.6826C13.2255 13.7868 13.1212 13.9045 13.0137 14.0174C12.812 14.2293 12.5309 14.4997 12.1756 14.6806C11.5046 15.0355 10.794 14.9306 10.2697 14.7558C9.72902 14.5755 9.21515 14.2666 8.79692 13.9717C8.37026 13.6709 7.99585 13.3507 7.73114 13.1095C7.59768 12.9879 7.48948 12.884 7.41351 12.8094C7.37548 12.772 7.34538 12.7418 7.32407 12.7202L7.30158 12.6972L7.27888 12.675C7.25743 12.6538 7.22736 12.6239 7.19007 12.5861C7.11559 12.5105 7.01177 12.4028 6.88992 12.2699C6.64808 12.0062 6.32649 11.6338 6.02098 11.2102C5.72104 10.7942 5.40616 10.2874 5.21119 9.75724C5.02365 9.24723 4.88462 8.54269 5.19799 7.86354L5.2245 7.80609L5.25803 7.75244C5.4628 7.42472 5.7411 7.15878 5.9648 6.96008C6.0674 6.86894 6.1744 6.77845 6.27122 6.69657C6.28388 6.68587 6.29636 6.67531 6.30864 6.66491C6.41928 6.57126 6.5177 6.48721 6.60901 6.40394C6.99664 6.05043 7.01437 5.91675 7.01285 5.87694C7.01043 5.86383 6.99579 5.79095 6.94186 5.64672C6.88652 5.4987 6.80509 5.31577 6.69956 5.11024C6.48778 4.69773 6.20151 4.23785 5.89249 3.84045C5.59039 3.45195 5.3178 3.18982 5.11995 3.06183Z" fill="#1A1A1C"/>
</svg>
