<svg width="22" height="22" viewBox="0 0 22 22" fill="none" xmlns="http://www.w3.org/2000/svg">
<path fill-rule="evenodd" clip-rule="evenodd" d="M10.7412 1.71471C10.9029 1.62843 11.0971 1.62843 11.2588 1.71471L18.9588 5.82137C19.138 5.91696 19.25 6.10355 19.25 6.30667V15.6933C19.25 15.8965 19.138 16.083 18.9588 16.1786L11.2588 20.2853C11.0971 20.3716 10.9029 20.3716 10.7412 20.2853L3.04118 16.1786C2.86195 16.083 2.75 15.8965 2.75 15.6933V6.30667C2.75 6.10355 2.86195 5.91696 3.04118 5.82137L10.7412 1.71471ZM8.68079 4.06025L14.8644 7.72901L17.5312 6.30667L11 2.82333L8.68079 4.06025ZM18.15 7.22334L15.4 8.69V11.5867C15.4 11.8904 15.1538 12.1367 14.85 12.1367C14.5462 12.1367 14.3 11.8904 14.3 11.5867V9.27667L11.55 10.7433V18.8833L18.15 15.3633V7.22334ZM10.45 18.8833V10.7433L3.85 7.22334V15.3633L10.45 18.8833ZM4.46875 6.30667L11 9.79L13.7291 8.33448L7.54553 4.66572L4.46875 6.30667Z" fill="#1A1A1C"/>
</svg>
