<svg width="22" height="22" viewBox="0 0 22 22" fill="none" xmlns="http://www.w3.org/2000/svg">
<path fill-rule="evenodd" clip-rule="evenodd" d="M10.7412 1.71473C10.9029 1.62846 11.0971 1.62846 11.2588 1.71473L18.9588 5.8214C19.138 5.91698 19.25 6.10357 19.25 6.30669V15.6934C19.25 15.8965 19.138 16.0831 18.9588 16.1787L11.2588 20.2853C11.0971 20.3716 10.9029 20.3716 10.7412 20.2853L3.04118 16.1787C2.86195 16.0831 2.75 15.8965 2.75 15.6934V6.30669C2.75 6.10357 2.86195 5.91698 3.04118 5.8214L10.7412 1.71473ZM8.68079 4.06027L14.8644 7.72903L17.5312 6.30669L11 2.82336L8.68079 4.06027ZM18.15 7.22336L15.4 8.69002V11.5867C15.4 11.8904 15.1538 12.1367 14.85 12.1367C14.5462 12.1367 14.3 11.8904 14.3 11.5867V9.27669L11.55 10.7434V18.8834L18.15 15.3634V7.22336ZM10.45 18.8834V10.7434L3.85 7.22336V15.3634L10.45 18.8834ZM4.46875 6.30669L11 9.79002L13.7291 8.33451L7.54553 4.66574L4.46875 6.30669Z" fill="#1A1A1C"/>
</svg>
