<svg width="22" height="22" viewBox="0 0 22 22" fill="none" xmlns="http://www.w3.org/2000/svg">
<path fill-rule="evenodd" clip-rule="evenodd" d="M11 19.8462C15.8856 19.8462 19.8462 15.8856 19.8462 11C19.8462 6.1144 15.8856 2.15385 11 2.15385C6.1144 2.15385 2.15385 6.1144 2.15385 11C2.15385 15.8856 6.1144 19.8462 11 19.8462ZM11 21C16.5228 21 21 16.5228 21 11C21 5.47715 16.5228 1 11 1C5.47715 1 1 5.47715 1 11C1 16.5228 5.47715 21 11 21ZM10.9183 14.8077C11.2938 14.8077 11.5983 14.5032 11.5983 14.1277C11.5983 13.7522 11.2938 13.4478 10.9183 13.4478C10.5428 13.4478 10.2384 13.7522 10.2384 14.1277C10.2384 14.5032 10.5428 14.8077 10.9183 14.8077ZM8.71514 9.36812C8.71514 8.16837 9.69121 7.19229 10.891 7.19229C12.0907 7.19229 13.0668 8.16837 13.0668 9.36812C13.0668 10.3801 12.3723 11.233 11.4349 11.4751V12.3599C11.4349 12.6603 11.1914 12.9038 10.891 12.9038C10.5905 12.9038 10.347 12.6603 10.347 12.3599V11C10.347 10.6996 10.5905 10.456 10.891 10.456C11.4908 10.456 11.9789 9.96799 11.9789 9.36812C11.9789 8.76824 11.4908 8.28021 10.891 8.28021C10.2911 8.28021 9.80305 8.76824 9.80305 9.36812C9.80305 9.66854 9.55952 9.91207 9.25909 9.91207C8.95867 9.91207 8.71514 9.66854 8.71514 9.36812Z" fill="#1A1A1C"/>
</svg>
