<svg width="22" height="22" viewBox="0 0 22 22" fill="none" xmlns="http://www.w3.org/2000/svg">
<path fill-rule="evenodd" clip-rule="evenodd" d="M7.9 5.35C7.9 3.83122 9.13122 2.6 10.65 2.6C12.1688 2.6 13.4 3.83122 13.4 5.35L13.4 7.55H7.9L7.9 5.35ZM14.5 7.55H17.25C17.5538 7.55 17.8 7.79624 17.8 8.1V19.1C17.8 19.4038 17.5538 19.65 17.25 19.65H4.05C3.74624 19.65 3.5 19.4038 3.5 19.1V8.1C3.5 7.79624 3.74624 7.55 4.05 7.55H6.8L6.8 5.35C6.8 3.2237 8.5237 1.5 10.65 1.5C12.7763 1.5 14.5 3.2237 14.5 5.35V7.55ZM4.6 18.55V8.65H16.7V18.55H4.6ZM11.2 14.0028C11.5288 13.8126 11.75 13.4572 11.75 13.05C11.75 12.4425 11.2575 11.95 10.65 11.95C10.0425 11.95 9.55 12.4425 9.55 13.05C9.55 13.4572 9.77121 13.8126 10.1 14.0028V16.35C10.1 16.6538 10.3462 16.9 10.65 16.9C10.9538 16.9 11.2 16.6538 11.2 16.35V14.0028Z" fill="#1A1A1C"/>
</svg>
