<svg width="22" height="22" viewBox="0 0 22 22" fill="none" xmlns="http://www.w3.org/2000/svg">
<path fill-rule="evenodd" clip-rule="evenodd" d="M5.1 8.32768C5.1 5.48011 7.51451 3.1 10.6 3.1C13.6855 3.1 16.1 5.48011 16.1 8.32768C16.1 9.88081 15.2109 11.8945 13.9689 13.8914C12.809 15.7562 11.4523 17.4348 10.6044 18.4264C9.7535 17.4363 8.39368 15.7569 7.23204 13.891C5.98907 11.8944 5.1 9.88071 5.1 8.32768ZM17.2 8.32768C17.2 12.0972 13.0326 17.2949 11.326 19.2746C10.9489 19.7085 10.2606 19.7085 9.88343 19.2746C8.16743 17.2949 4 12.0972 4 8.32768C4 4.82938 6.95114 2 10.6 2C14.2489 2 17.2 4.82938 17.2 8.32768ZM10.6 9.7C11.5113 9.7 12.25 8.96127 12.25 8.05C12.25 7.13873 11.5113 6.4 10.6 6.4C9.68873 6.4 8.95 7.13873 8.95 8.05C8.95 8.96127 9.68873 9.7 10.6 9.7Z" fill="#1A1A1C"/>
</svg>
