<svg width="18" height="18" viewBox="0 0 18 18" fill="none" xmlns="http://www.w3.org/2000/svg">
<circle cx="9" cy="9" r="7.5" stroke="#1A1A1C"/>
<path d="M8.93562 12C9.23148 12 9.47133 11.7602 9.47133 11.4643C9.47133 11.1684 9.23148 10.9286 8.93562 10.9286C8.63975 10.9286 8.3999 11.1684 8.3999 11.4643C8.3999 11.7602 8.63975 12 8.93562 12Z" fill="#1A1A1C"/>
<path d="M8.91423 6C7.96898 6 7.19995 6.76903 7.19995 7.71428C7.19995 7.95098 7.39182 8.14285 7.62852 8.14285C7.86522 8.14285 8.05709 7.95098 8.05709 7.71428C8.05709 7.24166 8.44161 6.85714 8.91423 6.85714C9.38686 6.85714 9.77138 7.24166 9.77138 7.71428C9.77138 8.18691 9.38686 8.57143 8.91423 8.57143C8.67754 8.57143 8.48566 8.7633 8.48566 9V10.0714C8.48566 10.3081 8.67754 10.5 8.91423 10.5C9.15093 10.5 9.34281 10.3081 9.34281 10.0714V9.37433C10.0814 9.18355 10.6285 8.51162 10.6285 7.71428C10.6285 6.76903 9.85949 6 8.91423 6Z" fill="#1A1A1C"/>
</svg>
