<svg width="22" height="22" viewBox="0 0 22 22" fill="none" xmlns="http://www.w3.org/2000/svg">
<path fill-rule="evenodd" clip-rule="evenodd" d="M11.15 13.8432C14.4913 13.8432 17.2 11.2078 17.2 7.95676C17.2 4.70574 14.4913 2.07027 11.15 2.07027C7.80868 2.07027 5.1 4.70574 5.1 7.95676C5.1 11.2078 7.80868 13.8432 11.15 13.8432ZM15.55 13.4407C17.2239 12.1674 18.3 10.1843 18.3 7.95676C18.3 4.11465 15.0988 1 11.15 1C7.20116 1 4 4.11465 4 7.95676C4 10.1843 5.07605 12.1674 6.75 13.4407V20.2649C6.75 20.4606 6.85986 20.6408 7.03645 20.7346C7.21304 20.8284 7.42818 20.8209 7.59742 20.715L11.15 18.4929L14.7026 20.715C14.8718 20.8209 15.087 20.8284 15.2636 20.7346C15.4401 20.6408 15.55 20.4606 15.55 20.2649V13.4407ZM14.45 14.1299C13.4627 14.6305 12.3403 14.9135 11.15 14.9135C9.95966 14.9135 8.83726 14.6305 7.85 14.1298V19.2847L10.8526 17.4066C11.0338 17.2933 11.2662 17.2933 11.4474 17.4066L14.45 19.2847V14.1299ZM11.15 10.6324C12.6688 10.6324 13.9 9.43449 13.9 7.95676C13.9 6.47903 12.6688 5.28108 11.15 5.28108C9.63122 5.28108 8.4 6.47903 8.4 7.95676C8.4 9.43449 9.63122 10.6324 11.15 10.6324ZM11.15 11.7027C13.2763 11.7027 15 10.0256 15 7.95676C15 5.88793 13.2763 4.21081 11.15 4.21081C9.0237 4.21081 7.3 5.88793 7.3 7.95676C7.3 10.0256 9.0237 11.7027 11.15 11.7027Z" fill="#1A1A1C"/>
</svg>
