<svg width="22" height="22" viewBox="0 0 22 22" fill="none" xmlns="http://www.w3.org/2000/svg">
<path fill-rule="evenodd" clip-rule="evenodd" d="M19.0133 19.6C19.3373 19.6 19.5999 19.3373 19.5999 19.0133L19.5999 2.58667C19.5999 2.26266 19.3373 2 19.0133 2L9.6266 2C9.30259 2 9.03993 2.26266 9.03993 2.58667C9.03993 2.91067 9.30259 3.17333 9.6266 3.17333L18.4266 3.17333V18.4267L9.6266 18.4267C9.30259 18.4267 9.03993 18.6893 9.03993 19.0133C9.03993 19.3373 9.30259 19.6 9.6266 19.6H19.0133ZM5.69183 14.4415C5.92094 14.6706 6.2924 14.6706 6.5215 14.4415C6.75061 14.2124 6.75061 13.8409 6.5215 13.6118L4.00301 11.0933L14.32 11.0933C14.644 11.0933 14.9067 10.8307 14.9067 10.5067C14.9067 10.1827 14.644 9.92 14.32 9.92L4.00301 9.92L6.5215 7.40151C6.75061 7.1724 6.75061 6.80094 6.5215 6.57183C6.2924 6.34273 5.92094 6.34273 5.69183 6.57183L2.17183 10.0918C1.94272 10.3209 1.94272 10.6924 2.17183 10.9215L5.69183 14.4415Z" fill="#1A1A1C"/>
</svg>
