<svg width="22" height="22" viewBox="0 0 22 22" fill="none" xmlns="http://www.w3.org/2000/svg">
<path fill-rule="evenodd" clip-rule="evenodd" d="M7.28 0C7.12441 0 6.97519 0.060996 6.86516 0.16957L2.17183 4.80115C2.06181 4.90972 2 5.05698 2 5.21053V21.4211C2 21.7408 2.26266 22 2.58667 22H19.0133C19.3373 22 19.6 21.7408 19.6 21.4211V0.578947C19.6 0.259204 19.3373 0 19.0133 0H7.28ZM7.86667 1.15789H18.4267V20.8421H3.17333V5.78947H7.28C7.60401 5.78947 7.86667 5.53027 7.86667 5.21053V1.15789ZM6.69333 4.63158H4.00301L6.69333 1.97665V4.63158ZM7.27993 8.10526C6.95592 8.10526 6.69326 8.36446 6.69326 8.6842C6.69326 9.00395 6.95592 9.26315 7.27993 9.26315H14.3199C14.6439 9.26315 14.9066 9.00395 14.9066 8.6842C14.9066 8.36446 14.6439 8.10526 14.3199 8.10526H7.27993ZM6.69326 12.1579C6.69326 11.8381 6.95592 11.5789 7.27993 11.5789H14.3199C14.6439 11.5789 14.9066 11.8381 14.9066 12.1579C14.9066 12.4776 14.6439 12.7368 14.3199 12.7368H7.27993C6.95592 12.7368 6.69326 12.4776 6.69326 12.1579ZM7.27993 15.0526C6.95592 15.0526 6.69326 15.3118 6.69326 15.6316C6.69326 15.9513 6.95592 16.2105 7.27993 16.2105H10.7999C11.1239 16.2105 11.3866 15.9513 11.3866 15.6316C11.3866 15.3118 11.1239 15.0526 10.7999 15.0526H7.27993Z" fill="#1A1A1C"/>
</svg>
