<svg width="20" height="20" viewBox="0 0 20 20" fill="none" xmlns="http://www.w3.org/2000/svg">
<path fill-rule="evenodd" clip-rule="evenodd" d="M2.46351 4.61508C2.75431 4.28478 3.17682 4.07692 3.64706 4.07692H16.3529C16.8232 4.07692 17.2457 4.28479 17.5365 4.61511L10 9.88501L2.46351 4.61508ZM2.05965 5.63956C2.0591 5.65708 2.05882 5.67466 2.05882 5.69231V14.3077C2.05882 15.1998 2.7699 15.9231 3.64706 15.9231H16.3529C17.2301 15.9231 17.9412 15.1998 17.9412 14.3077V5.69231C17.9412 5.67468 17.9409 5.65711 17.9403 5.63961L10.3 10.9822C10.1193 11.1085 9.88077 11.1085 9.70011 10.9822L2.05965 5.63956ZM3.64706 3C2.18513 3 1 4.20539 1 5.69231V14.3077C1 15.7946 2.18513 17 3.64706 17H16.3529C17.8149 17 19 15.7946 19 14.3077V5.69231C19 4.20539 17.8149 3 16.3529 3H3.64706Z" fill="#1A1A1C"/>
</svg>
