<svg width="20" height="20" viewBox="0 0 20 20" fill="none" xmlns="http://www.w3.org/2000/svg">
<path fill-rule="evenodd" clip-rule="evenodd" d="M2.00004 10C2.36823 10 2.66671 10.2985 2.66671 10.6667V18H17.3334V10.6667C17.3334 10.2985 17.6318 10 18 10C18.3682 10 18.6667 10.2985 18.6667 10.6667V18.6667C18.6667 19.0349 18.3682 19.3333 18 19.3333H2.00004C1.63185 19.3333 1.33337 19.0349 1.33337 18.6667V10.6667C1.33337 10.2985 1.63185 10 2.00004 10Z" fill="#1A1A1C"/>
<path fill-rule="evenodd" clip-rule="evenodd" d="M6.47145 6.47108C6.2111 6.73143 5.78899 6.73143 5.52864 6.47108C5.26829 6.21073 5.26829 5.78862 5.52864 5.52827L9.52864 1.52827C9.78899 1.26792 10.2111 1.26792 10.4714 1.52827L14.4714 5.52827C14.7318 5.78862 14.7318 6.21073 14.4714 6.47108C14.2111 6.73143 13.789 6.73143 13.5286 6.47108L10.6667 3.60915V12.6663C10.6667 13.0345 10.3682 13.333 10 13.333C9.63185 13.333 9.33337 13.0345 9.33337 12.6663V3.60915L6.47145 6.47108Z" fill="#1A1A1C"/>
</svg>
