<svg width="22" height="22" viewBox="0 0 22 22" fill="none" xmlns="http://www.w3.org/2000/svg">
<path fill-rule="evenodd" clip-rule="evenodd" d="M10.9 1.15789C8.64866 1.15789 6.82356 2.97232 6.82356 5.21053V8.10526H14.9765V5.21053C14.9765 2.97232 13.1514 1.15789 10.9 1.15789ZM5.65886 5.21053V8.10526H2.74706C1.78218 8.10526 1 8.88287 1 9.8421V20.2631C1 21.2224 1.78219 22 2.74706 22H19.0529C20.0178 22 20.8 21.2224 20.8 20.2631V18.3333C20.8 18.0136 20.5393 17.7544 20.2176 17.7544C19.896 17.7544 19.6353 18.0136 19.6353 18.3333V20.2631C19.6353 20.5829 19.3746 20.8421 19.0529 20.8421H2.74706C2.42543 20.8421 2.16471 20.5829 2.16471 20.2631V9.8421C2.16471 9.52235 2.42543 9.26315 2.74706 9.26315H19.0529C19.3746 9.26315 19.6353 9.52235 19.6353 9.8421V15.0526C19.6353 15.3724 19.896 15.6316 20.2176 15.6316C20.5393 15.6316 20.8 15.3724 20.8 15.0526V9.8421C20.8 8.88287 20.0178 8.10526 19.0529 8.10526H16.1412V5.21053C16.1412 2.33283 13.7947 0 10.9 0C8.00541 0 5.65886 2.33283 5.65886 5.21053ZM7.68513 15.0342C7.68513 15.4398 7.36548 15.7685 6.97118 15.7685C6.57687 15.7685 6.25723 15.4398 6.25723 15.0342C6.25723 14.6287 6.57687 14.3 6.97118 14.3C7.36548 14.3 7.68513 14.6287 7.68513 15.0342ZM9.64867 15.7685C10.043 15.7685 10.3626 15.4398 10.3626 15.0342C10.3626 14.6287 10.043 14.3 9.64867 14.3C9.25436 14.3 8.93472 14.6287 8.93472 15.0342C8.93472 15.4398 9.25436 15.7685 9.64867 15.7685ZM15.0391 15.7685C15.4334 15.7685 15.753 15.4398 15.753 15.0342C15.753 14.6287 15.4334 14.3 15.0391 14.3C14.6448 14.3 14.3251 14.6287 14.3251 15.0342C14.3251 15.4398 14.6448 15.7685 15.0391 15.7685ZM12.3256 15.7685C12.7199 15.7685 13.0396 15.4398 13.0396 15.0342C13.0396 14.6287 12.7199 14.3 12.3256 14.3C11.9313 14.3 11.6117 14.6287 11.6117 15.0342C11.6117 15.4398 11.9313 15.7685 12.3256 15.7685Z" fill="#1A1A1C"/>
</svg>
