<svg width="94" height="20" viewBox="0 0 94 20" fill="none" xmlns="http://www.w3.org/2000/svg">
<path d="M92.1098 15.4355H90.3021C89.8029 15.4355 89.3982 15.8377 89.3982 16.3338V18.1304C89.3982 18.6265 89.8029 19.0286 90.3021 19.0286H92.1098C92.609 19.0286 93.0137 18.6265 93.0137 18.1304V16.3338C93.0137 15.8377 92.609 15.4355 92.1098 15.4355Z" fill="#DA0336"/>
<path d="M2.57056 19.0288L0 1.02881H2.77259L4.27034 12.6942L6.14949 1.07208H8.41354L10.338 12.6942L11.8131 1.02881H14.5404L12.0134 19.0288H9.33135L7.31113 6.96362L5.32225 19.0288H2.57056Z" fill="#1A1A1C"/>
<path d="M15.9509 19.0288V1.0288H20.4006C21.1329 1.02155 21.8637 1.09586 22.5794 1.25034C23.1846 1.37908 23.756 1.63262 24.2565 1.99458C24.7391 2.35938 25.1139 2.84664 25.3415 3.40515C25.6169 4.12273 25.7459 4.88756 25.7212 5.65515C25.7369 6.29076 25.6348 6.92381 25.4199 7.52265C25.2434 8.00536 24.9382 8.43132 24.5369 8.75496C24.111 9.07602 23.6111 9.28606 23.0827 9.36592C23.7304 9.45623 24.3432 9.71274 24.8608 10.1102C25.3369 10.5002 25.698 11.0109 25.9058 11.5882C26.1538 12.2948 26.2718 13.0399 26.2541 13.788C26.2671 14.5595 26.1578 15.3281 25.9301 16.0657C25.741 16.6799 25.4121 17.2425 24.9688 17.71C24.5256 18.1565 23.9835 18.4938 23.3857 18.6948C22.6679 18.9293 21.9154 19.0416 21.16 19.0271L15.9509 19.0288ZM19.2599 8.38457H20.378C21.0328 8.38457 21.5396 8.28938 21.8984 8.09554C22.2536 7.90627 22.5218 7.58829 22.6473 7.20765C22.8018 6.71917 22.8736 6.20856 22.8597 5.69669C22.8597 5.05977 22.7518 4.56707 22.5358 4.21861C22.3143 3.86692 21.9661 3.61249 21.5623 3.50727C21.0221 3.369 20.4654 3.30552 19.9078 3.31861H19.2599V8.38457ZM19.2599 16.7182H20.5121C21.5106 16.7182 22.1887 16.4776 22.5463 15.9965C22.9039 15.5153 23.0827 14.7705 23.0827 13.7621C23.1021 13.1632 23.0155 12.5657 22.8267 11.9967C22.6748 11.5692 22.3731 11.2104 21.9768 10.9859C21.4915 10.7435 20.9519 10.6285 20.4094 10.6519H19.2686L19.2599 16.7182Z" fill="#1A1A1C"/>
<path d="M27.235 19.0288L30.901 1.02881H34.4747L38.132 19.0288H35.032L34.3075 14.875H31.1344L30.3872 19.0288H27.235ZM31.4653 12.7859H33.954L32.7105 5.22939L31.4653 12.7859Z" fill="#1A1A1C"/>
<path d="M39.5179 19.0288V1.02881H41.8934L46.439 11.294V1.03054H49.2551V19.0305H46.991L42.4229 8.27554V19.0305L39.5179 19.0288Z" fill="#1A1A1C"/>
<path d="M51.4424 19.0288V1.02881H55.7615C57.2558 1.02881 58.4226 1.22843 59.2621 1.62766C60.0706 1.99766 60.7097 2.65621 61.0524 3.47265C61.4007 4.30227 61.5778 5.354 61.5836 6.62785V13.2048C61.5836 14.5098 61.4065 15.595 61.0524 16.4604C60.7215 17.3004 60.0902 17.9895 59.2795 18.3954C58.4551 18.8177 57.326 19.0288 55.8921 19.0288H51.4424ZM54.7949 16.7407H55.8155C56.5852 16.7407 57.1373 16.6075 57.4682 16.3409C57.8164 16.0453 58.036 15.6273 58.0813 15.1744C58.1635 14.5519 58.2013 13.9243 58.1945 13.2965V6.40631C58.2071 5.81671 58.154 5.22754 58.036 4.64958C57.9975 4.45115 57.9195 4.26238 57.8064 4.09442C57.6933 3.92647 57.5476 3.78273 57.3777 3.6717C57.0444 3.46516 56.5086 3.36189 55.7702 3.36189H54.7949V16.7407Z" fill="#1A1A1C"/>
<path d="M63.7295 19.0288V1.02881H66.9949V19.0288H63.7295Z" fill="#1A1A1C"/>
<path d="M71.3228 19.0288V3.45189H68.4387V1.02881H77.4722V3.45189H74.6317V19.0288H71.3228Z" fill="#1A1A1C"/>
<path d="M83.3938 19.2729C82.3059 19.2729 81.3968 19.0623 80.6665 18.6411C79.9311 18.2148 79.3516 17.5667 79.012 16.7909C78.6393 15.9775 78.4303 14.9777 78.385 13.7915L81.2238 13.229C81.2427 13.8513 81.3286 14.4698 81.4798 15.074C81.5833 15.535 81.8074 15.9607 82.1294 16.308C82.282 16.4536 82.4626 16.567 82.6604 16.6414C82.8583 16.7157 83.0692 16.7495 83.2806 16.7407C83.817 16.7407 84.1972 16.5815 84.4213 16.263C84.6559 15.9032 84.7727 15.48 84.7557 15.0515C84.7557 14.2669 84.5769 13.6225 84.2193 13.1182C83.8079 12.5568 83.3269 12.0491 82.7877 11.6073L80.5097 9.60824C79.8947 9.09061 79.3759 8.46964 78.9771 7.77362C78.5975 7.10093 78.4077 6.26785 78.4077 5.27439C78.4077 3.8517 78.825 2.75554 79.6598 1.98593C80.4946 1.21631 81.6348 0.830928 83.0803 0.829774C83.8084 0.806408 84.5331 0.939229 85.205 1.2192C85.7423 1.45554 86.2085 1.82649 86.5582 2.29574C86.8998 2.76994 87.1534 3.30097 87.3071 3.86381C87.4745 4.47014 87.5795 5.09179 87.6206 5.7192L84.8027 6.20727C84.7795 5.69944 84.716 5.19422 84.6129 4.69631C84.5403 4.30826 84.3592 3.94837 84.0904 3.65785C83.8431 3.40516 83.4826 3.27881 83.0054 3.27881C82.7927 3.26592 82.58 3.30255 82.384 3.38579C82.1881 3.46902 82.0144 3.59655 81.8769 3.75824C81.609 4.09546 81.4702 4.51616 81.485 4.94554C81.4631 5.47168 81.5949 5.99287 81.8647 6.44612C82.1712 6.89876 82.5399 7.30656 82.9601 7.65766L85.2242 9.6342C85.9735 10.2604 86.6199 10.9992 87.1399 11.8236C87.667 12.6613 87.9311 13.6721 87.9323 14.8559C87.946 15.6527 87.7497 16.4391 87.3628 17.1371C86.9907 17.7962 86.4406 18.3387 85.7745 18.7034C85.044 19.095 84.2236 19.2912 83.3938 19.2729Z" fill="#1A1A1C"/>
</svg>
