<svg width="228" height="47" viewBox="0 0 228 47" fill="none" xmlns="http://www.w3.org/2000/svg">
<path d="M224.828 37.0887H220.415C219.197 37.0887 218.209 38.0942 218.209 39.3344V43.8258C218.209 45.066 219.197 46.0714 220.415 46.0714H224.828C226.046 46.0714 227.034 45.066 227.034 43.8258V39.3344C227.034 38.0942 226.046 37.0887 224.828 37.0887Z" fill="#DA0336"/>
<path d="M6.27439 46.0714L0 1.07141H6.7675L10.4233 30.2349L15.0101 1.17958H20.5363L25.2336 30.2349L28.8341 1.07141H35.4911L29.323 46.0714H22.7765L17.8454 15.9084L12.9909 46.0714H6.27439Z" fill="#1A1A1C"/>
<path d="M38.9344 46.0715V1.07146H49.7956C51.583 1.05332 53.3668 1.23909 55.1135 1.62531C56.5909 1.94714 57.9855 2.581 59.2072 3.48589C60.3851 4.3979 61.2999 5.61606 61.8555 7.01233C62.5277 8.80627 62.8427 10.7183 62.7822 12.6373C62.8207 14.2263 62.5714 15.809 62.0468 17.3061C61.616 18.5129 60.871 19.5777 59.8916 20.3869C58.8521 21.1895 57.6319 21.7146 56.342 21.9143C57.923 22.14 59.4189 22.7813 60.6822 23.7748C61.8443 24.7499 62.7256 26.0267 63.2328 27.47C63.8383 29.2364 64.1263 31.0993 64.083 32.9696C64.1148 34.8981 63.848 36.8197 63.2923 38.6638C62.8307 40.1992 62.0277 41.6058 60.9458 42.7743C59.8641 43.8907 58.5408 44.7338 57.0817 45.2364C55.3297 45.8226 53.4929 46.1035 51.649 46.0671L38.9344 46.0715ZM47.0112 19.4609H49.7403C51.3387 19.4609 52.5757 19.2229 53.4514 18.7383C54.3184 18.2651 54.973 17.4702 55.2793 16.5186C55.6565 15.2974 55.8318 14.0209 55.7979 12.7412C55.7979 11.1489 55.5344 9.91713 55.0072 9.04598C54.4666 8.16674 53.6167 7.53068 52.631 7.26762C51.3126 6.92195 49.9536 6.76325 48.5926 6.79599H47.0112V19.4609ZM47.0112 40.295H50.0677C52.5049 40.295 54.1599 39.6936 55.0327 38.4907C55.9056 37.2878 56.342 35.4258 56.342 32.9046C56.3895 31.4076 56.178 29.9137 55.7171 28.4912C55.3464 27.4225 54.61 26.5255 53.6427 25.9643C52.4583 25.3583 51.1412 25.0708 49.8168 25.1292H47.0325L47.0112 40.295Z" fill="#1A1A1C"/>
<path d="M66.4762 46.0714L75.4244 1.07141H84.1473L93.0743 46.0714H85.5077L83.7392 35.6868H75.9941L74.1704 46.0714H66.4762ZM76.8017 30.4642H82.8763L79.8411 11.5729L76.8017 30.4642Z" fill="#1A1A1C"/>
<path d="M96.4581 46.0714V1.07141H102.256L113.351 26.7344V1.07574H120.225V46.0758H114.699L103.549 19.1882V46.0758L96.4581 46.0714Z" fill="#1A1A1C"/>
<path d="M125.564 46.0714V1.07141H136.107C139.754 1.07141 142.602 1.57046 144.651 2.56854C146.625 3.49353 148.184 5.13992 149.021 7.18102C149.871 9.25506 150.303 11.8844 150.317 15.069V31.5113C150.317 34.7738 149.885 37.4868 149.021 39.6503C148.213 41.7505 146.672 43.4731 144.693 44.4878C142.681 45.5435 139.925 46.0714 136.425 46.0714H125.564ZM133.747 40.3512H136.238C138.117 40.3512 139.465 40.0181 140.272 39.3517C141.122 38.6125 141.658 37.5676 141.769 36.4353C141.969 34.879 142.062 33.3102 142.045 31.7406V14.5152C142.076 13.0412 141.946 11.5682 141.658 10.1233C141.564 9.62726 141.374 9.15533 141.098 8.73545C140.822 8.31556 140.466 7.95622 140.051 7.67863C139.238 7.16229 137.93 6.90411 136.128 6.90411H133.747V40.3512Z" fill="#1A1A1C"/>
<path d="M155.555 46.0714V1.07141H163.525V46.0714H155.555Z" fill="#1A1A1C"/>
<path d="M174.089 46.0714V7.1291H167.049V1.07141H189.099V7.1291H182.165V46.0714H174.089Z" fill="#1A1A1C"/>
<path d="M203.552 46.6815C200.896 46.6815 198.677 46.1551 196.895 45.1022C195.1 44.0364 193.686 42.4162 192.856 40.4767C191.947 38.4431 191.437 35.9435 191.326 32.9781L198.255 31.5719C198.301 33.1277 198.511 34.674 198.88 36.1844C199.133 37.3369 199.68 38.401 200.466 39.2695C200.838 39.6335 201.279 39.9169 201.762 40.1028C202.245 40.2887 202.76 40.3732 203.276 40.3512C204.585 40.3512 205.513 39.9532 206.06 39.157C206.633 38.2574 206.918 37.1993 206.876 36.1282C206.876 34.1666 206.44 32.5556 205.567 31.295C204.563 29.8913 203.389 28.6222 202.073 27.5176L196.512 22.52C195.011 21.2259 193.745 19.6735 192.771 17.9334C191.845 16.2517 191.381 14.169 191.381 11.6854C191.381 8.12863 192.4 5.38824 194.438 3.46421C196.475 1.54017 199.258 0.576709 202.787 0.573825C204.564 0.515409 206.333 0.847462 207.973 1.54738C209.284 2.13824 210.422 3.06562 211.276 4.23873C212.11 5.42423 212.729 6.75181 213.104 8.15892C213.512 9.67474 213.769 11.2289 213.869 12.7974L206.991 14.0176C206.934 12.748 206.779 11.4849 206.528 10.2402C206.35 9.27004 205.908 8.3703 205.252 7.64402C204.649 7.01228 203.769 6.69642 202.604 6.69642C202.085 6.6642 201.565 6.75578 201.087 6.96385C200.609 7.17193 200.185 7.49077 199.849 7.89498C199.195 8.73805 198.857 9.7898 198.893 10.8632C198.839 12.1786 199.161 13.4816 199.82 14.6147C200.568 15.7463 201.468 16.7658 202.493 17.6435L208.02 22.5849C209.849 24.1505 211.426 25.9973 212.696 28.0584C213.982 30.1527 214.627 32.6796 214.63 35.6392C214.663 37.6311 214.184 39.5972 213.24 41.3421C212.332 42.9899 210.989 44.3462 209.363 45.258C207.58 46.2368 205.577 46.7274 203.552 46.6815Z" fill="#1A1A1C"/>
</svg>
