<svg width="150" height="150" viewBox="0 0 150 150" fill="none" xmlns="http://www.w3.org/2000/svg">
<rect width="150" height="150" rx="75" fill="white"/>
<path fill-rule="evenodd" clip-rule="evenodd" d="M75.036 46.1142C75.3266 45.9619 75.6734 45.9619 75.964 46.1142L100.464 58.9475C100.794 59.1201 101 59.4613 101 59.8333V89.1667C101 89.5387 100.794 89.8799 100.464 90.0525L75.964 102.886C75.6734 103.038 75.3266 103.038 75.036 102.886L50.536 90.0525C50.2065 89.8799 50 89.5387 50 89.1667V59.8333C50 59.4613 50.2065 59.1201 50.536 58.9475L75.036 46.1142ZM66.6204 52.7801L87.7758 65.1076L97.8449 59.8333L75.5 48.1289L66.6204 52.7801ZM99 61.486L88.75 66.8551V76.3333C88.75 76.8856 88.3023 77.3333 87.75 77.3333C87.1977 77.3333 86.75 76.8856 86.75 76.3333V67.9027L76.5 73.2717V100.347L99 88.5616V61.486ZM74.5 100.347V73.2717L52 61.486V88.5616L74.5 100.347ZM53.1551 59.8333L75.5 71.5378L85.6838 66.2034L64.5284 53.8759L53.1551 59.8333Z" fill="#1A1A1C"/>
</svg>
