<svg width="150" height="150" viewBox="0 0 150 150" fill="none" xmlns="http://www.w3.org/2000/svg">
<rect width="150" height="150" rx="75" fill="white"/>
<path fill-rule="evenodd" clip-rule="evenodd" d="M64 49C62.8954 49 62 49.8954 62 51V57H48C46.8954 57 46 57.8954 46 59V99C46 100.105 46.8954 101 48 101H103C104.105 101 105 100.105 105 99V59C105 57.8954 104.105 57 103 57H89V51C89 49.8954 88.1046 49 87 49H64ZM87 57V51H64V57H87ZM48 73V59L103 59V73H83V72C83 71.4477 82.5523 71 82 71H69C68.4477 71 68 71.4477 68 72V73H48ZM83 78V75H103V99H48V75H68V78C68 78.5523 68.4477 79 69 79H82C82.5523 79 83 78.5523 83 78ZM70 77H81V73H70V77Z" fill="#1A1A1C"/>
</svg>
