<svg width="150" height="150" viewBox="0 0 150 150" fill="none" xmlns="http://www.w3.org/2000/svg">
<rect width="150" height="150" rx="75" fill="white"/>
<path d="M78.0368 54.0178L78.0372 54.0174C83.6097 48.1033 92.5499 47.2139 98.517 52.4443C105.442 58.5246 105.813 69.467 99.5967 76.0655L99.5965 76.0657L76.9214 100.148C76.9213 100.148 76.9213 100.148 76.9212 100.148C75.8512 101.284 74.1388 101.284 73.0688 100.148C73.0688 100.148 73.0687 100.148 73.0686 100.148L50.3939 76.0662C44.1882 69.4674 44.5593 58.5241 51.4853 52.4438C57.4528 47.2137 66.4038 48.1041 71.9638 54.0166L71.965 54.0178L74.2735 56.4647L75.0009 57.2356L75.7282 56.4647L78.0368 54.0178Z" stroke="#1A1A1C" stroke-width="2"/>
</svg>
