<svg width="150" height="150" viewBox="0 0 150 150" fill="none" xmlns="http://www.w3.org/2000/svg">
<rect width="150" height="150" rx="75" fill="white"/>
<path fill-rule="evenodd" clip-rule="evenodd" d="M65 60C65 54.4772 69.4772 50 75 50C80.5229 50 85 54.4772 85 60V62H65L65 60ZM87 62H95.4509C95.9766 62 96.4289 62.372 96.5302 62.8879L103.958 100.688C104.091 101.368 103.571 102 102.878 102H47.1214C46.4287 102 45.9085 101.368 46.042 100.688L53.4694 62.8879C53.5707 62.3721 54.023 62 54.5487 62H63V60C63 53.3726 68.3726 48 75 48C81.6274 48 87 53.3726 87 60V62ZM85 64V72C85 72.5523 85.4477 73 86 73C86.5523 73 87 72.5523 87 72V64H94.7105L101.784 100H48.2154L55.2891 64H63L63 72C63 72.5523 63.4477 73 64 73C64.5523 73 65 72.5523 65 72L65 64H85Z" fill="#1A1A1C"/>
</svg>
