<svg width="15" height="15" viewBox="0 0 15 15" fill="none" xmlns="http://www.w3.org/2000/svg">
<path d="M7.05163 0.908492C7.23504 0.536869 7.76496 0.53687 7.94837 0.908493L9.58786 4.23047C9.66069 4.37804 9.80147 4.48032 9.96433 4.50399L13.6303 5.03669C14.0405 5.09628 14.2042 5.60027 13.9074 5.88954L11.2547 8.47533C11.1369 8.5902 11.0831 8.7557 11.1109 8.9179L11.7371 12.5691C11.8072 12.9775 11.3785 13.289 11.0117 13.0962L7.73267 11.3723C7.58701 11.2957 7.41299 11.2957 7.26733 11.3723L3.98835 13.0962C3.62153 13.289 3.19282 12.9775 3.26287 12.5691L3.8891 8.9179C3.91692 8.7557 3.86315 8.5902 3.7453 8.47533L1.09255 5.88954C0.795793 5.60027 0.959547 5.09628 1.36966 5.03669L5.03567 4.50399C5.19853 4.48032 5.33931 4.37804 5.41214 4.23047L7.05163 0.908492Z" fill="#CACACA"/>
</svg>
