<svg width="20" height="20" viewBox="0 0 20 20" fill="none" xmlns="http://www.w3.org/2000/svg"><path fill-rule="evenodd" clip-rule="evenodd" d="M11.416 5.27L10 6.752 8.583 5.27c-1.441-1.514-3.706-1.696-5.18-.42-1.77 1.535-1.868 4.312-.28 5.98l6.803 7.135c.028.03.053.036.072.036.02 0 .045-.006.073-.036l6.803-7.135c1.591-1.669 1.493-4.445-.276-5.98-1.475-1.276-3.736-1.094-5.182.421zm5.837-1.176c2.207 1.914 2.323 5.35.344 7.425l-6.802 7.135a1.09 1.09 0 01-1.593 0L2.4 11.52C.424 9.444.54 6.009 2.748 4.094c1.926-1.668 4.795-1.368 6.56.486l.692.725.693-.725c1.768-1.854 4.633-2.154 6.56-.486z" fill="#1A1A1C"/></svg>