<svg width="18" height="18" viewBox="0 0 18 18" fill="none" xmlns="http://www.w3.org/2000/svg"><path fill-rule="evenodd" clip-rule="evenodd" d="M10.246 3.958L9 5.262 7.754 3.957c-1.27-1.333-3.262-1.493-4.56-.37-1.556 1.35-1.643 3.794-.245 5.263l5.986 6.279c.025.026.047.031.064.031.016 0 .039-.005.064-.031l5.986-6.28c1.4-1.468 1.314-3.911-.243-5.261-1.297-1.123-3.287-.964-4.56.37zm5.137-1.035c1.942 1.684 2.044 4.708.303 6.534l-5.987 6.279a.96.96 0 01-1.401 0l-5.986-6.28C.573 7.632.675 4.608 2.618 2.924c1.695-1.468 4.22-1.204 5.773.427l.61.638.609-.638c1.556-1.631 4.077-1.895 5.773-.427z" fill="#1A1A1C"/></svg>