<svg width="22" height="22" viewBox="0 0 22 22" fill="none" xmlns="http://www.w3.org/2000/svg"><path fill-rule="evenodd" clip-rule="evenodd" d="M10.741 1.715a.55.55 0 01.518 0l7.7 4.106a.55.55 0 01.291.486v9.386a.55.55 0 01-.291.486l-7.7 4.106a.55.55 0 01-.518 0l-7.7-4.106a.55.55 0 01-.291-.486V6.307a.55.55 0 01.291-.486l7.7-4.106zM8.681 4.06l6.183 3.669 2.667-1.422L11 2.823 8.68 4.06zm9.469 3.163L15.4 8.69v2.897a.55.55 0 01-1.1 0v-2.31l-2.75 1.466v8.14l6.6-3.52v-8.14zm-7.7 11.66v-8.14l-6.6-3.52v8.14l6.6 3.52zM4.469 6.307L11 9.79l2.73-1.455-6.184-3.67-3.077 1.642z" fill="#1A1A1C"/></svg>