<svg width="22" height="22" viewBox="0 0 22 22" fill="none" xmlns="http://www.w3.org/2000/svg"><path fill-rule="evenodd" clip-rule="evenodd" d="M10.9 1.158c-2.251 0-4.076 1.814-4.076 4.053v2.894h8.152V5.211c0-2.239-1.825-4.053-4.076-4.053zM5.659 5.21v2.894H2.747A1.744 1.744 0 001 9.842v10.421C1 21.223 1.782 22 2.747 22h16.306c.965 0 1.747-.778 1.747-1.737v-1.93a.58.58 0 00-.582-.579.58.58 0 00-.583.58v1.93a.58.58 0 01-.582.578H2.747a.58.58 0 01-.582-.579V9.843c0-.32.26-.58.582-.58h16.306a.58.58 0 01.582.58v5.21c0 .32.261.579.583.579a.58.58 0 00.582-.58v-5.21c0-.96-.782-1.737-1.747-1.737H16.14V5.211C16.141 2.333 13.795 0 10.9 0S5.659 2.333 5.659 5.21zm2.026 9.823c0 .406-.32.734-.714.734a.724.724 0 01-.714-.734c0-.405.32-.734.714-.734.394 0 .714.329.714.734zm1.964.734a.724.724 0 00.714-.734.724.724 0 00-.714-.734.724.724 0 00-.714.734c0 .406.32.734.714.734zm5.39 0a.724.724 0 00.714-.734.724.724 0 00-.714-.734.724.724 0 00-.714.734c0 .406.32.734.714.734zm-2.713 0a.724.724 0 00.714-.734.724.724 0 00-.714-.734.724.724 0 00-.714.734c0 .406.32.734.714.734z" fill="#1A1A1C"/></svg>