<svg width="22" height="22" viewBox="0 0 22 22" fill="none" xmlns="http://www.w3.org/2000/svg"><path fill-rule="evenodd" clip-rule="evenodd" d="M5.1 8.328C5.1 5.48 7.515 3.1 10.6 3.1s5.5 2.38 5.5 5.228c0 1.553-.89 3.567-2.131 5.563-1.16 1.865-2.517 3.544-3.365 4.535-.85-.99-2.21-2.67-3.372-4.535C5.989 11.894 5.1 9.881 5.1 8.328zm12.1 0c0 3.77-4.167 8.967-5.874 10.947a.962.962 0 01-1.443 0C8.167 17.295 4 12.097 4 8.328 4 4.829 6.951 2 10.6 2c3.649 0 6.6 2.83 6.6 6.328zM10.6 9.7a1.65 1.65 0 100-3.3 1.65 1.65 0 000 3.3z" fill="#1A1A1C"/></svg>