<svg width="20" height="20" viewBox="0 0 20 20" fill="none" xmlns="http://www.w3.org/2000/svg"><path fill-rule="evenodd" clip-rule="evenodd" d="M2.464 4.615c.29-.33.713-.538 1.183-.538h12.706c.47 0 .893.208 1.183.538L10 9.885l-7.536-5.27zM2.06 5.64l-.001.052v8.616c0 .892.71 1.615 1.588 1.615h12.706c.877 0 1.588-.723 1.588-1.615V5.64L10.3 10.982a.522.522 0 01-.6 0L2.06 5.64zM3.647 3C2.185 3 1 4.205 1 5.692v8.616C1 15.795 2.185 17 3.647 17h12.706C17.815 17 19 15.795 19 14.308V5.692C19 4.205 17.815 3 16.353 3H3.647z" fill="#1A1A1C"/></svg>