<svg width="22" height="22" viewBox="0 0 22 22" fill="none" xmlns="http://www.w3.org/2000/svg"><path fill-rule="evenodd" clip-rule="evenodd" d="M6.497 15.501l.04.04c.592.595 4.34 4.364 7.67 4.257 1.983 0 2.974-.22 5.397-2.865 1.102-1.211-2.753-3.635-3.965-3.745-.751-.069-1.29.541-1.802 1.119-.314.354-.617.696-.951.864-1.432.77-4.076-1.983-4.076-1.983s-2.753-2.644-2.092-4.076c.198-.318.54-.608.891-.904.622-.526 1.272-1.076 1.201-1.85C8.7 5.255 6.277 1.29 5.066 2.39c-2.644 2.425-2.864 3.417-2.864 5.4-.11 3.415 4.295 7.711 4.295 7.711zM5.632 3.368C4.457 4.463 3.912 5.16 3.634 5.735c-.272.564-.33 1.098-.33 2.055v.017l-.001.018c-.02.622.167 1.357.528 2.158.357.792.852 1.583 1.37 2.296a21.61 21.61 0 002.027 2.395l.03.031.008.007.01.01.038.039a20.493 20.493 0 002.563 2.198c1.411 1.008 2.972 1.78 4.295 1.738l.018-.001h.017c.957 0 1.49-.059 2.055-.331.576-.278 1.276-.827 2.376-2.009-.132-.214-.41-.512-.83-.844a8.622 8.622 0 00-1.382-.88 5.407 5.407 0 00-.597-.265 2.251 2.251 0 00-.267-.079l-.022-.003c-.038-.004-.177-.007-.599.442-.09.097-.181.2-.284.315l-.008.009a13.75 13.75 0 01-.334.368c-.222.233-.531.53-.922.73-.738.39-1.52.275-2.096.082-.595-.198-1.16-.538-1.62-.862a12.329 12.329 0 01-1.62-1.377l-.025-.025-.025-.025a13.329 13.329 0 01-.428-.446c-.266-.29-.62-.699-.956-1.165-.33-.457-.676-1.015-.89-1.598-.207-.561-.36-1.336-.015-2.083l.029-.063.037-.06c.225-.36.531-.652.777-.871.113-.1.23-.2.337-.29l.041-.035c.122-.103.23-.195.33-.287.427-.389.447-.536.445-.58a1.63 1.63 0 00-.078-.253 5.715 5.715 0 00-.267-.59 9.22 9.22 0 00-.887-1.397c-.333-.427-.632-.715-.85-.856z" fill="#1A1A1C"/></svg>