<svg width="20" height="20" viewBox="0 0 20 20" fill="none" xmlns="http://www.w3.org/2000/svg"><path fill-rule="evenodd" clip-rule="evenodd" d="M2 10c.368 0 .667.299.667.667V18h14.666v-7.333a.667.667 0 111.334 0v8a.667.667 0 01-.667.666H2a.667.667 0 01-.667-.666v-8c0-.368.299-.667.667-.667z" fill="#1A1A1C"/><path fill-rule="evenodd" clip-rule="evenodd" d="M6.471 6.471a.667.667 0 11-.942-.943l4-4c.26-.26.682-.26.942 0l4 4a.667.667 0 11-.942.943L10.667 3.61v9.057a.667.667 0 01-1.334 0V3.61L6.471 6.471z" fill="#1A1A1C"/></svg>