<svg width="150" height="150" viewBox="0 0 150 150" fill="none" xmlns="http://www.w3.org/2000/svg"><rect width="150" height="150" rx="75" fill="#fff"/><path fill-rule="evenodd" clip-rule="evenodd" d="M65 60c0-5.523 4.477-10 10-10s10 4.477 10 10v2H65v-2zm22 2h8.45a1.1 1.1 0 011.08.888l7.428 37.8a1.1 1.1 0 01-1.08 1.312H47.121a1.1 1.1 0 01-1.079-1.312l7.427-37.8A1.1 1.1 0 0154.55 62H63v-2c0-6.627 5.373-12 12-12s12 5.373 12 12v2zm-2 2v8a1 1 0 102 0v-8h7.71l7.074 36H48.215l7.074-36H63v8a1 1 0 102 0v-8h20z" fill="#1A1A1C"/></svg>