<svg width="15" height="15" viewBox="0 0 15 15" fill="none" xmlns="http://www.w3.org/2000/svg"><path fill-rule="evenodd" clip-rule="evenodd" d="M10.9 6.992c0 2.2-1.769 3.983-3.95 3.983C4.768 10.975 3 9.19 3 6.992c0-2.2 1.768-3.984 3.95-3.984 2.181 0 3.95 1.784 3.95 3.984zm-1.175 4.133a4.898 4.898 0 01-2.775.858C4.216 11.983 2 9.748 2 6.992 2 4.235 4.216 2 6.95 2s4.95 2.235 4.95 4.992a4.997 4.997 0 01-1.407 3.486l2.38 2.682a.507.507 0 01-.04.712.497.497 0 01-.706-.04l-2.402-2.707z" fill="#8A8D92"/></svg>