<svg width="22" height="22" viewBox="0 0 22 22" fill="none" xmlns="http://www.w3.org/2000/svg"><rect x="15.085" y="15.714" width="3.143" height="3.143" rx=".792" fill="#8A8D92"/><path d="M5.029 3.457c0-.173.14-.314.314-.314H8.99c1.52 0 2.682.296 3.488.89.805.593 1.208 1.609 1.208 3.048 0 .934-.198 1.666-.594 2.196-.396.518-.971.833-1.724.947 1.85.34 2.774 1.981 2.774 4.165 0 1.477-.377 2.594-1.13 3.351-.752.745-1.869 1.117-3.348 1.117H5.343a.314.314 0 01-.314-.314V3.457zM8.952 9.41c.845 0 1.42-.177 1.723-.53.317-.366.476-.953.476-1.761 0-.783-.205-1.313-.614-1.59-.397-.29-1.064-.436-2.001-.436H7.94V9.41h1.01zm.119 7.478c.858 0 1.453-.196 1.783-.587.33-.391.495-1.035.495-1.93 0-.922-.185-1.591-.555-2.008-.356-.429-.964-.643-1.823-.643h-1.03v5.168h1.13z" fill="#8A8D92"/></svg>