<svg width="22" height="22" viewBox="0 0 22 22" fill="none" xmlns="http://www.w3.org/2000/svg"><rect x="15.085" y="15.714" width="3.143" height="3.143" rx=".792" fill="#DA0336"/><path d="M5.029 3.457c0-.174.14-.314.314-.314H8.99c1.52 0 2.682.296 3.488.89.805.593 1.208 1.609 1.208 3.048 0 .934-.198 1.666-.594 2.196-.396.517-.971.833-1.724.947 1.85.34 2.774 1.981 2.774 4.165 0 1.477-.377 2.594-1.13 3.35-.752.745-1.869 1.118-3.348 1.118H5.343a.314.314 0 01-.314-.314V3.457zm3.923 5.952c.845 0 1.42-.176 1.723-.53.317-.366.476-.953.476-1.76 0-.783-.205-1.313-.614-1.59-.397-.291-1.064-.436-2.001-.436H7.94v4.316h1.01zm.119 7.479c.858 0 1.453-.196 1.783-.587.33-.391.495-1.035.495-1.931 0-.922-.185-1.59-.555-2.007-.356-.43-.964-.644-1.823-.644h-1.03v5.169h1.13z" fill="#1A1A1C"/></svg>