<svg width="22" height="22" viewBox="0 0 22 22" fill="none" xmlns="http://www.w3.org/2000/svg"><path fill-rule="evenodd" clip-rule="evenodd" d="M11 18.7a7.7 7.7 0 100-15.4 7.7 7.7 0 000 15.4zm0 1.1a8.8 8.8 0 100-17.6 8.8 8.8 0 000 17.6z" fill="#8A8D92"/><path fill-rule="evenodd" clip-rule="evenodd" d="M11 12.1a2.2 2.2 0 100-4.4 2.2 2.2 0 000 4.4zm0 1.1a3.3 3.3 0 100-6.6 3.3 3.3 0 000 6.6zm-.883 1.74c-1.846.271-3.399 1.203-4.25 1.969l-.735-.818c.983-.884 2.73-1.932 4.826-2.239 2.121-.31 4.58.143 6.91 2.24l-.736.817c-2.07-1.863-4.195-2.235-6.015-1.968z" fill="#8A8D92"/></svg>