<svg width="22" height="22" viewBox="0 0 22 22" fill="none" xmlns="http://www.w3.org/2000/svg"><path fill-rule="evenodd" clip-rule="evenodd" d="M8.303 5.824c0-1.43 1.208-2.589 2.697-2.589 1.49 0 2.697 1.16 2.697 2.589v.517H8.303v-.517zM7.225 7.377V8.93c0 .286.241.517.539.517.298 0 .54-.231.54-.517V7.377h5.393V8.93c0 .286.241.517.539.517.298 0 .54-.231.54-.517V7.377h1.449c.241 0 .453.153.519.376L19.8 18.106c.098.33-.161.659-.519.659H2.719c-.358 0-.617-.329-.519-.659L5.256 7.753a.537.537 0 01.52-.376h1.449zm0-1.036v-.517C7.225 3.822 8.915 2.2 11 2.2s3.775 1.622 3.775 3.624v.517h1.45c.724 0 1.36.462 1.557 1.13l3.056 10.353c.292.991-.483 1.976-1.557 1.976H2.719c-1.074 0-1.85-.985-1.557-1.976L4.218 7.47c.198-.668.833-1.13 1.557-1.13h1.45z" fill="#DA0336"/></svg>