<svg width="22" height="22" viewBox="0 0 22 22" fill="none" xmlns="http://www.w3.org/2000/svg"><path fill-rule="evenodd" clip-rule="evenodd" d="M12.557 4.698L11 6.328 9.442 4.696c-1.586-1.665-4.077-1.866-5.7-.461-1.945 1.687-2.054 4.742-.306 6.577l7.482 7.849c.031.032.06.039.08.039.021 0 .05-.007.08-.04l7.483-7.848c1.75-1.836 1.643-4.89-.303-6.577-1.622-1.404-4.11-1.205-5.7.463zm6.421-1.295c2.429 2.106 2.556 5.885.38 8.168l-7.484 7.849a1.2 1.2 0 01-1.752 0L2.64 11.57C.466 9.289.594 5.51 3.022 3.404c2.12-1.834 5.275-1.504 7.216.535l.762.797.762-.797c1.945-2.04 5.097-2.37 7.216-.535z" fill="#8A8D92"/></svg>