<svg width="22" height="22" viewBox="0 0 22 22" fill="none" xmlns="http://www.w3.org/2000/svg"><path fill-rule="evenodd" clip-rule="evenodd" d="M6.706 4.4L2.362 7.318l1.71 2.948 1.48-.768c.446-.231.982.088.982.584V18.7h8.932v-8.618c0-.496.536-.815.982-.584l1.48.768 1.71-2.948L15.294 4.4h-1.559A2.782 2.782 0 0111 6.6a2.782 2.782 0 01-2.735-2.2H6.706zm-.515-.985A.677.677 0 016.57 3.3h2.086a.67.67 0 01.672.633A1.664 1.664 0 0011 5.5c.897 0 1.629-.695 1.673-1.567a.67.67 0 01.671-.633h2.087c.135 0 .267.04.378.115l4.798 3.223a.654.654 0 01.205.873l-2.129 3.67a.675.675 0 01-.893.256l-1.208-.626v8.329c0 .364-.3.66-.67.66H6.088a.665.665 0 01-.67-.66v-8.329l-1.208.626a.675.675 0 01-.893-.256L1.188 7.51a.654.654 0 01.205-.873L6.19 3.415z" fill="#8A8D92"/></svg>